<svg xmlns="http://www.w3.org/2000/svg">
  <symbol>
     <path id='logoText' d="M58.478 12.335v-4.67c0-.54-.174-.984-.523-1.332-.337-.349-.775-.523-1.315-.523-.36 0-.68.079-.96.236a1.68 1.68 0 0 0-.658.657 1.933 1.933 0 0 0-.237.962l-.725-.405c0-.618.135-1.164.405-1.636.27-.483.64-.86 1.113-1.13a3.161 3.161 0 0 1 1.619-.42 2.85 2.85 0 0 1 1.618.471c.472.304.843.703 1.113 1.197.27.484.405.99.405 1.518v5.075h-1.855Zm-5.547 0V4.242h1.854v8.093h-1.854ZM48.996 12.335V4.242h1.854v8.093h-1.854Zm.927-9.577c-.315 0-.579-.107-.792-.32a1.108 1.108 0 0 1-.304-.793c0-.315.101-.579.304-.792.213-.214.477-.32.792-.32.326 0 .59.106.793.32.202.213.303.477.303.792 0 .315-.101.579-.303.793-.203.213-.467.32-.793.32ZM43.732 12.504c-.81 0-1.54-.18-2.192-.54a4.226 4.226 0 0 1-1.534-1.517c-.371-.641-.557-1.36-.557-2.159 0-.798.186-1.511.557-2.14a4.135 4.135 0 0 1 1.5-1.518 4.164 4.164 0 0 1 2.125-.557c.753 0 1.416.174 1.99.523.584.348 1.04.826 1.365 1.433.338.607.506 1.298.506 2.074 0 .135-.011.275-.034.422a4.068 4.068 0 0 1-.067.455h-6.643V7.462h5.682l-.691.607c-.023-.494-.118-.91-.287-1.247a1.794 1.794 0 0 0-.725-.776c-.304-.18-.68-.27-1.13-.27-.472 0-.882.101-1.23.304a2.063 2.063 0 0 0-.81.86c-.191.36-.287.792-.287 1.298s.101.95.304 1.332c.202.382.489.68.86.894.37.202.798.303 1.281.303.416 0 .798-.073 1.147-.22.36-.145.663-.359.91-.64l1.18 1.197c-.393.461-.87.81-1.433 1.046a4.568 4.568 0 0 1-1.787.354ZM35.061 12.335V.87h1.855v11.466H35.06Zm-1.939-6.407V4.242h5.733v1.686h-5.733ZM27.439 12.504c-.73 0-1.394-.186-1.99-.557a4.088 4.088 0 0 1-1.4-1.5c-.336-.641-.505-1.355-.505-2.142 0-.798.169-1.512.506-2.141a4.052 4.052 0 0 1 1.4-1.518 3.608 3.608 0 0 1 1.989-.573c.618 0 1.163.135 1.636.405.483.258.865.618 1.146 1.079.281.46.422.983.422 1.568v2.327c0 .584-.14 1.107-.422 1.568-.27.46-.646.826-1.13 1.096-.483.258-1.034.388-1.652.388Zm.303-1.754c.686 0 1.237-.23 1.653-.691.427-.461.64-1.051.64-1.77 0-.484-.095-.911-.286-1.282a2.062 2.062 0 0 0-.81-.86c-.337-.214-.736-.32-1.197-.32-.45 0-.848.106-1.197.32a2.214 2.214 0 0 0-.81.86c-.19.371-.286.798-.286 1.281 0 .484.096.911.287 1.282.202.37.472.663.81.877a2.34 2.34 0 0 0 1.196.303Zm2.176 1.585V10.16l.32-1.973-.32-1.956v-1.99h1.854v8.094h-1.854ZM19.138 12.335V.87h1.855v11.466h-1.855ZM17.2 5.928V4.242h5.733v1.686H17.2ZM13.31 12.504c-.45 0-.883-.056-1.299-.169a4.802 4.802 0 0 1-1.146-.506 3.92 3.92 0 0 1-.91-.809l1.18-1.18c.28.326.6.573.96.742.371.157.787.236 1.248.236.416 0 .73-.062.944-.186a.59.59 0 0 0 .32-.54.65.65 0 0 0-.303-.573 2.752 2.752 0 0 0-.792-.337A28.779 28.779 0 0 0 12.5 8.88a5.589 5.589 0 0 1-1.011-.405 2.28 2.28 0 0 1-.776-.725c-.202-.304-.304-.697-.304-1.18 0-.517.118-.961.354-1.332.248-.371.59-.658 1.029-.86.45-.203.984-.304 1.602-.304.652 0 1.225.118 1.72.354.505.225.927.568 1.264 1.029l-1.18 1.18a2.352 2.352 0 0 0-.81-.658 2.381 2.381 0 0 0-1.045-.219c-.37 0-.657.056-.86.169-.202.112-.303.275-.303.489 0 .225.101.399.303.523.203.123.461.23.776.32.326.09.663.191 1.012.303.36.102.697.248 1.011.439.326.18.59.427.793.742.202.303.303.702.303 1.197 0 .787-.275 1.41-.826 1.871-.55.461-1.298.692-2.242.692ZM.97 12.335V.532h1.939v11.803H.969Zm1.332 0v-1.77h6.61v1.77h-6.61Zm0-5.176V5.456h6.036v1.703H2.302Zm0-4.856V.533h6.525v1.77H2.302Z"/>
  </symbol>

  <symbol>
    <path id='burgerOpen' fill-rule="evenodd" clip-rule="evenodd"
      d="M3.5 7.875C3.5 7.39175 3.89175 7 4.375 7H23.625C24.1082 7 24.5 7.39175 24.5 7.875C24.5 8.35825 24.1082 8.75 23.625 8.75H4.375C3.89175 8.75 3.5 8.35825 3.5 7.875ZM3.5 14C3.5 13.5168 3.89175 13.125 4.375 13.125H23.625C24.1082 13.125 24.5 13.5168 24.5 14C24.5 14.4832 24.1082 14.875 23.625 14.875H4.375C3.89175 14.875 3.5 14.4832 3.5 14ZM13.125 20.125C13.125 19.6418 13.5168 19.25 14 19.25H23.625C24.1082 19.25 24.5 19.6418 24.5 20.125C24.5 20.6082 24.1082 21 23.625 21H14C13.5168 21 13.125 20.6082 13.125 20.125Z" />
  </symbol>

  <symbol>
    <path id='burgerClose' fill-rule="evenodd" clip-rule="evenodd"
      d="M5.46967 5.46967C5.76256 5.17678 6.23744 5.17678 6.53033 5.46967L12 10.9393L17.4697 5.46967C17.7626 5.17678 18.2374 5.17678 18.5303 5.46967C18.8232 5.76256 18.8232 6.23744 18.5303 6.53033L13.0607 12L18.5303 17.4697C18.8232 17.7626 18.8232 18.2374 18.5303 18.5303C18.2374 18.8232 17.7626 18.8232 17.4697 18.5303L12 13.0607L6.53033 18.5303C6.23744 18.8232 5.76256 18.8232 5.46967 18.5303C5.17678 18.2374 5.17678 17.7626 5.46967 17.4697L10.9393 12L5.46967 6.53033C5.17678 6.23744 5.17678 5.76256 5.46967 5.46967Z" />
  </symbol>

  <symbol id='mainSectAbstract'>
    <g clip-path="url(#clip0_75_930)">
      <path
        d="M15 30.0166C23.2843 30.0166 30 23.3009 30 15.0166C30 6.73233 23.2843 0.0166836 15 0.0166836C6.71573 0.0166836 0 6.73233 0 15.0166C0 23.3009 6.71573 30.0166 15 30.0166Z"
        fill="#666666" />
      <path
        d="M0 45C8.28427 45 15 38.2843 15 30C15 21.7157 8.28427 15 0 15C-8.28427 15 -15 21.7157 -15 30C-15 38.2843 -8.28427 45 0 45Z"
        fill="#141414" />
      <path
        d="M30 45C38.2843 45 45 38.2843 45 30C45 21.7157 38.2843 15 30 15C21.7157 15 15 21.7157 15 30C15 38.2843 21.7157 45 30 45Z"
        fill="#141414" />
      <path
        d="M0 15C8.28427 15 15 8.28427 15 0C15 -8.28427 8.28427 -15 0 -15C-8.28427 -15 -15 -8.28427 -15 0C-15 8.28427 -8.28427 15 0 15Z"
        fill="#141414" />
      <path
        d="M30 15C38.2843 15 45 8.28427 45 0C45 -8.28427 38.2843 -15 30 -15C21.7157 -15 15 -8.28427 15 0C15 8.28427 21.7157 15 30 15Z"
        fill="#141414" />
    </g>
    <g clip-path="url(#clip1_75_930)">
      <path
        d="M45 24.01C49.9706 24.01 54 19.9805 54 15.01C54 10.0394 49.9706 6.01001 45 6.01001C40.0294 6.01001 36 10.0394 36 15.01C36 19.9805 40.0294 24.01 45 24.01Z"
        fill="#333333" />
      <path
        d="M36 33C40.9706 33 45 28.9706 45 24C45 19.0294 40.9706 15 36 15C31.0294 15 27 19.0294 27 24C27 28.9706 31.0294 33 36 33Z"
        fill="#141414" />
      <path
        d="M54 33C58.9706 33 63 28.9706 63 24C63 19.0294 58.9706 15 54 15C49.0294 15 45 19.0294 45 24C45 28.9706 49.0294 33 54 33Z"
        fill="#141414" />
      <path
        d="M36 15C40.9706 15 45 10.9706 45 6C45 1.02944 40.9706 -3 36 -3C31.0294 -3 27 1.02944 27 6C27 10.9706 31.0294 15 36 15Z"
        fill="#141414" />
      <path
        d="M54 15C58.9706 15 63 10.9706 63 6C63 1.02944 58.9706 -3 54 -3C49.0294 -3 45 1.02944 45 6C45 10.9706 49.0294 15 54 15Z"
        fill="#141414" />
    </g>
    <g clip-path="url(#clip2_75_930)">
      <path
        d="M64.2 19.2046C66.5196 19.2046 68.4 17.3242 68.4 15.0046C68.4 12.6851 66.5196 10.8047 64.2 10.8047C61.8804 10.8047 60 12.6851 60 15.0046C60 17.3242 61.8804 19.2046 64.2 19.2046Z"
        fill="#333333" />
      <path
        d="M59.9998 23.4C62.3194 23.4 64.1998 21.5196 64.1998 19.2C64.1998 16.8804 62.3194 15 59.9998 15C57.6802 15 55.7998 16.8804 55.7998 19.2C55.7998 21.5196 57.6802 23.4 59.9998 23.4Z"
        fill="#141414" />
      <path
        d="M68.3997 23.4C70.7193 23.4 72.5997 21.5196 72.5997 19.2C72.5997 16.8804 70.7193 15 68.3997 15C66.0801 15 64.1997 16.8804 64.1997 19.2C64.1997 21.5196 66.0801 23.4 68.3997 23.4Z"
        fill="#141414" />
      <path
        d="M59.9998 15C62.3194 15 64.1998 13.1196 64.1998 10.8C64.1998 8.4804 62.3194 6.6 59.9998 6.6C57.6802 6.6 55.7998 8.4804 55.7998 10.8C55.7998 13.1196 57.6802 15 59.9998 15Z"
        fill="#141414" />
      <path
        d="M68.3997 15C70.7193 15 72.5997 13.1196 72.5997 10.8C72.5997 8.4804 70.7193 6.6 68.3997 6.6C66.0801 6.6 64.1997 8.4804 64.1997 10.8C64.1997 13.1196 66.0801 15 68.3997 15Z"
        fill="#141414" />
    </g>
    <defs>
      <clipPath id="clip0_75_930">
        <rect width="30" height="30" fill="white" />
      </clipPath>
      <clipPath id="clip1_75_930">
        <rect width="18" height="18" fill="white" transform="translate(36 6)" />
      </clipPath>
      <clipPath id="clip2_75_930">
        <rect width="8.4" height="8.4" fill="white" transform="translate(60 10.8)" />
      </clipPath>
    </defs>
  </symbol>

  <symbol id="bathroom">
    <g clip-path="url(#a)">
      <g fill="#fff" clip-path="url(#b)">
        <path
          d="M.27 14.262h9.84v1.808h6.152v-1.805h2.443c.159 2.15.171 4.065-2.034 5.525-.027.018-.049.042-.109.095l.803.668-.973.931c-.29-.3-.604-.647-.946-.963-.1-.094-.279-.132-.425-.14-.238-.015-.48.023-.72.024-3.195.002-6.39.002-9.586.002-.153 0-.317.029-.458-.014-.426-.128-.697.07-.95.375-.217.26-.463.495-.688.733l-.884-.93.755-.67c-.2-.143-.351-.243-.494-.354-1.068-.823-1.645-1.914-1.72-3.255-.038-.664-.007-1.332-.007-2.03ZM.276 9.287C.27 9.168.26 9.061.26 8.954c0-1.74-.003-3.48 0-5.22C.264 1.82 1.591.485 3.501.5c.641.005 1.302-.009 1.918.137C6.512.895 7.2 1.653 7.532 2.72c.065.207.148.308.376.37 1.286.348 2.188 1.55 2.205 2.891.003.216 0 .432 0 .667H4.026c-.29-1.535.544-3.12 2.287-3.614-.157-.685-.832-1.263-1.54-1.288a21.512 21.512 0 0 0-1.608 0c-.922.036-1.665.884-1.669 1.9-.006 1.75-.001 3.502-.001 5.253v.386H.275v.001ZM10.093 13.033H.388c-.673 0-1.157-.32-1.328-.863-.256-.819.324-1.607 1.208-1.619.94-.012 1.881-.003 2.822-.003h7.003v2.484Z" />
        <path
          d="M15.024 14.871h-3.66c-.007-.116-.016-.22-.016-.326-.002-1.268-.002-2.537 0-3.805 0-.918.501-1.422 1.415-1.426.339-.001.678-.008 1.017.002.76.024 1.258.536 1.26 1.3.004 1.322.001 2.645 0 3.969 0 .086-.01.171-.016.286ZM16.283 13.02v-2.472c.595 0 1.182-.002 1.768 0 .305.002.617-.023.916.026.652.108 1.076.642 1.05 1.265-.027.612-.478 1.137-1.119 1.17-.859.045-1.722.011-2.614.011Z" />
      </g>
    </g>
    <defs>
      <clipPath id="a">
        <path fill="#fff" d="M0 .5h20v20H0z" />
      </clipPath>
      <clipPath id="b">
        <path fill="#fff" d="M-1 .5h21.017v21H-1z" />
      </clipPath>
    </defs>
  </symbol>

  <symbol id="bedroom">
    <g clip-path="url(#a)">
      <g fill="#fff" clip-path="url(#b)">
        <path
          d="M10.012 17.96H1.018c-.303 0-.443.138-.443.438 0 .077.004.155-.001.232a2.31 2.31 0 0 1-.033.276c-.065.331-.382.596-.761.592a.774.774 0 0 1-.755-.65 1.68 1.68 0 0 1-.02-.259c-.001-1.761-.013-3.523.004-5.284.01-1.027.389-1.92 1.116-2.663a3.931 3.931 0 0 1 1.568-.977c.472-.16.96-.21 1.458-.21 4.611.002 9.223-.002 13.834.004 1.352.001 2.446.538 3.257 1.605.398.524.636 1.12.717 1.772.028.219.04.442.04.664.004 1.71.003 3.42.002 5.13 0 .268-.067.511-.29.688-.237.187-.5.235-.782.121a.728.728 0 0 1-.478-.601c-.02-.146-.017-.295-.02-.443-.007-.238-.107-.381-.307-.425-.044-.01-.09-.01-.136-.01h-8.976ZM9.902 2.5h5.833c.651 0 1.26.143 1.785.54.676.509 1.07 1.18 1.103 2.021.028.714.016 1.43.019 2.144.002.46 0 .921 0 1.382a.47.47 0 0 1-.013.124c-.034.125-.103.174-.232.15-.14-.026-.277-.083-.418-.098-.331-.036-.664-.06-.997-.078-.222-.011-.29-.05-.322-.266-.1-.68-.74-1.293-1.56-1.283-.913.01-1.826.002-2.739.002-.68 0-1.26.398-1.49 1.026-.033.09-.046.188-.063.283-.032.17-.096.233-.268.235-.36.004-.72.004-1.08 0-.165-.001-.23-.066-.26-.254a1.448 1.448 0 0 0-.316-.707c-.308-.375-.707-.58-1.198-.581-.942-.005-1.885-.003-2.828-.001-.792 0-1.412.61-1.513 1.279-.032.216-.097.254-.32.268-.367.024-.735.058-1.101.097-.113.012-.22.06-.333.078-.12.02-.176-.02-.21-.137a.511.511 0 0 1-.02-.143c0-1.104-.015-2.209.003-3.314.02-1.155.563-2.005 1.624-2.519.42-.202.876-.248 1.338-.248h5.576Z" />
      </g>
    </g>
    <defs>
      <clipPath id="a">
        <path fill="#fff" d="M0 .5h20v20H0z" />
      </clipPath>
      <clipPath id="b">
        <path fill="#fff" d="M-1 2.5h22v17H-1z" />
      </clipPath>
    </defs>
  </symbol>

  <symbol id="villa">
    <path fill="#fff" fill-rule="evenodd"
      d="M4 17V4h-.25a.75.75 0 0 1 0-1.5h12.5a.75.75 0 0 1 0 1.5H16v13h.25a.75.75 0 0 1 0 1.5h-3.5a.75.75 0 0 1-.75-.75v-2.5a.75.75 0 0 0-.75-.75h-2.5a.75.75 0 0 0-.75.75v2.5a.75.75 0 0 1-.75.75h-3.5a.75.75 0 0 1 0-1.5H4ZM7 6a.5.5 0 0 1 .5-.5h1A.5.5 0 0 1 9 6v1a.5.5 0 0 1-.5.5h-1A.5.5 0 0 1 7 7V6Zm.5 3.5a.5.5 0 0 0-.5.5v1a.5.5 0 0 0 .5.5h1A.5.5 0 0 0 9 11v-1a.5.5 0 0 0-.5-.5h-1ZM11 6a.5.5 0 0 1 .5-.5h1a.5.5 0 0 1 .5.5v1a.5.5 0 0 1-.5.5h-1A.5.5 0 0 1 11 7V6Zm.5 3.5a.5.5 0 0 0-.5.5v1a.5.5 0 0 0 .5.5h1a.5.5 0 0 0 .5-.5v-1a.5.5 0 0 0-.5-.5h-1Z"
      clip-rule="evenodd" />
  </symbol>
  <symbol>
    <path id="shape" fill="#FFE600"
      d="M10.159 1.31a1 1 0 0 1 1.682 0l3.04 4.731a1 1 0 0 0 .587.427l5.439 1.428a1 1 0 0 1 .52 1.6l-3.56 4.353a1 1 0 0 0-.225.69l.322 5.615a1 1 0 0 1-1.361.989l-5.24-2.042a1 1 0 0 0-.726 0l-5.24 2.042a1 1 0 0 1-1.361-.99l.322-5.613a1 1 0 0 0-.224-.69L.574 9.496a1 1 0 0 1 .52-1.6l5.438-1.429a1 1 0 0 0 .588-.427l3.039-4.731Z" />
  </symbol>
  <symbol>
    <path id="mailMe" fill="#999"
      d="M14.167 5.833H15v.834a.833.833 0 1 0 1.667 0v-.834h.833a.833.833 0 0 0 0-1.666h-.833v-.834a.833.833 0 1 0-1.667 0v.834h-.833a.833.833 0 0 0 0 1.666ZM17.5 9.167a.833.833 0 0 0-.833.833v5a.833.833 0 0 1-.833.833H4.167A.834.834 0 0 1 3.334 15V7.008l4.9 4.909a2.5 2.5 0 0 0 3.533 0l2.058-2.059a.837.837 0 0 0-1.183-1.183l-2.058 2.058a.833.833 0 0 1-1.167 0l-4.908-4.9h6.325a.833.833 0 0 0 0-1.666H4.167a2.5 2.5 0 0 0-2.5 2.5V15a2.5 2.5 0 0 0 2.5 2.5h11.667a2.5 2.5 0 0 0 2.5-2.5v-5a.833.833 0 0 0-.834-.833Z" />
  </symbol>
  <symbol>
    <path id="facebook" fill="#fff"
      d="M13.12 3.32H15V.14A26.109 26.109 0 0 0 12.26 0C9.54 0 7.68 1.66 7.68 4.7v2.62H4.61v3.56h3.07V20h3.68v-9.12h3.06l.46-3.56h-3.52V5.05c0-1.05.28-1.73 1.76-1.73Z" />
  </symbol>
  <symbol>
    <path id="instagram" fill="#fff"
      d="M17.058 1.667H2.942a1.208 1.208 0 0 0-1.225 1.191v14.284a1.209 1.209 0 0 0 1.225 1.191h14.116a1.209 1.209 0 0 0 1.226-1.191V2.858a1.208 1.208 0 0 0-1.226-1.191ZM6.742 15.617h-2.5v-7.5h2.5v7.5Zm-1.25-8.55a1.3 1.3 0 1 1 0-2.6 1.308 1.308 0 1 1 0 2.6Zm10.267 8.55h-2.5v-4.025c0-1.009-.359-1.667-1.267-1.667a1.375 1.375 0 0 0-1.284.908 1.668 1.668 0 0 0-.083.609v4.166h-2.5v-7.5h2.5v1.059a2.5 2.5 0 0 1 2.258-1.25c1.667 0 2.876 1.075 2.876 3.383v4.317Z" />
  </symbol>
  <symbol>
    <path id="twitter" fill="#fff"
      d="M18.334 4.833a7.076 7.076 0 0 1-1.967.534 3.442 3.442 0 0 0 1.508-1.892c-.672.4-1.407.682-2.175.833a3.417 3.417 0 0 0-5.833 3.117A9.7 9.7 0 0 1 2.825 3.85c-.3.525-.458 1.12-.458 1.725a3.408 3.408 0 0 0 1.517 2.842 3.375 3.375 0 0 1-1.55-.425v.041a3.417 3.417 0 0 0 2.75 3.334c-.298.09-.606.138-.917.141a4.084 4.084 0 0 1-.642-.058 3.425 3.425 0 0 0 3.192 2.367 6.85 6.85 0 0 1-5.05 1.416 9.642 9.642 0 0 0 5.242 1.542 9.657 9.657 0 0 0 9.758-9.733V6.6a7.026 7.026 0 0 0 1.667-1.767Z" />
  </symbol>
  <symbol>
    <path id="youTube" fill="#fff"
      d="M19.167 8.092a7.083 7.083 0 0 0-.759-3.442 2.433 2.433 0 0 0-1.433-.833A65.3 65.3 0 0 0 10 3.558c-2.32-.04-4.64.044-6.95.25-.457.083-.88.298-1.216.617C1.084 5.117 1 6.3.917 7.3a40.242 40.242 0 0 0 0 5.4 7.96 7.96 0 0 0 .25 1.667c.1.42.304.81.592 1.133.339.336.772.563 1.241.65a37.64 37.64 0 0 0 5.417.275c2.917.042 5.475 0 8.5-.233a2.401 2.401 0 0 0 1.275-.65c.233-.234.407-.52.508-.834a8.817 8.817 0 0 0 .434-2.833c.033-.467.033-3.283.033-3.783Zm-11.05 4.283V7.217l4.933 2.591c-1.383.767-3.208 1.634-4.933 2.567Z" />
  </symbol>
</svg>