<svg xmlns="http://www.w3.org/2000/svg">
  <symbol id='logoText'>
    <path
      d="M58.478 12.335v-4.67c0-.54-.174-.984-.523-1.332-.337-.349-.775-.523-1.315-.523-.36 0-.68.079-.96.236a1.68 1.68 0 0 0-.658.657 1.933 1.933 0 0 0-.237.962l-.725-.405c0-.618.135-1.164.405-1.636.27-.483.64-.86 1.113-1.13a3.161 3.161 0 0 1 1.619-.42 2.85 2.85 0 0 1 1.618.471c.472.304.843.703 1.113 1.197.27.484.405.99.405 1.518v5.075h-1.855Zm-5.547 0V4.242h1.854v8.093h-1.854ZM48.996 12.335V4.242h1.854v8.093h-1.854Zm.927-9.577c-.315 0-.579-.107-.792-.32a1.108 1.108 0 0 1-.304-.793c0-.315.101-.579.304-.792.213-.214.477-.32.792-.32.326 0 .59.106.793.32.202.213.303.477.303.792 0 .315-.101.579-.303.793-.203.213-.467.32-.793.32ZM43.732 12.504c-.81 0-1.54-.18-2.192-.54a4.226 4.226 0 0 1-1.534-1.517c-.371-.641-.557-1.36-.557-2.159 0-.798.186-1.511.557-2.14a4.135 4.135 0 0 1 1.5-1.518 4.164 4.164 0 0 1 2.125-.557c.753 0 1.416.174 1.99.523.584.348 1.04.826 1.365 1.433.338.607.506 1.298.506 2.074 0 .135-.011.275-.034.422a4.068 4.068 0 0 1-.067.455h-6.643V7.462h5.682l-.691.607c-.023-.494-.118-.91-.287-1.247a1.794 1.794 0 0 0-.725-.776c-.304-.18-.68-.27-1.13-.27-.472 0-.882.101-1.23.304a2.063 2.063 0 0 0-.81.86c-.191.36-.287.792-.287 1.298s.101.95.304 1.332c.202.382.489.68.86.894.37.202.798.303 1.281.303.416 0 .798-.073 1.147-.22.36-.145.663-.359.91-.64l1.18 1.197c-.393.461-.87.81-1.433 1.046a4.568 4.568 0 0 1-1.787.354ZM35.061 12.335V.87h1.855v11.466H35.06Zm-1.939-6.407V4.242h5.733v1.686h-5.733ZM27.439 12.504c-.73 0-1.394-.186-1.99-.557a4.088 4.088 0 0 1-1.4-1.5c-.336-.641-.505-1.355-.505-2.142 0-.798.169-1.512.506-2.141a4.052 4.052 0 0 1 1.4-1.518 3.608 3.608 0 0 1 1.989-.573c.618 0 1.163.135 1.636.405.483.258.865.618 1.146 1.079.281.46.422.983.422 1.568v2.327c0 .584-.14 1.107-.422 1.568-.27.46-.646.826-1.13 1.096-.483.258-1.034.388-1.652.388Zm.303-1.754c.686 0 1.237-.23 1.653-.691.427-.461.64-1.051.64-1.77 0-.484-.095-.911-.286-1.282a2.062 2.062 0 0 0-.81-.86c-.337-.214-.736-.32-1.197-.32-.45 0-.848.106-1.197.32a2.214 2.214 0 0 0-.81.86c-.19.371-.286.798-.286 1.281 0 .484.096.911.287 1.282.202.37.472.663.81.877a2.34 2.34 0 0 0 1.196.303Zm2.176 1.585V10.16l.32-1.973-.32-1.956v-1.99h1.854v8.094h-1.854ZM19.138 12.335V.87h1.855v11.466h-1.855ZM17.2 5.928V4.242h5.733v1.686H17.2ZM13.31 12.504c-.45 0-.883-.056-1.299-.169a4.802 4.802 0 0 1-1.146-.506 3.92 3.92 0 0 1-.91-.809l1.18-1.18c.28.326.6.573.96.742.371.157.787.236 1.248.236.416 0 .73-.062.944-.186a.59.59 0 0 0 .32-.54.65.65 0 0 0-.303-.573 2.752 2.752 0 0 0-.792-.337A28.779 28.779 0 0 0 12.5 8.88a5.589 5.589 0 0 1-1.011-.405 2.28 2.28 0 0 1-.776-.725c-.202-.304-.304-.697-.304-1.18 0-.517.118-.961.354-1.332.248-.371.59-.658 1.029-.86.45-.203.984-.304 1.602-.304.652 0 1.225.118 1.72.354.505.225.927.568 1.264 1.029l-1.18 1.18a2.352 2.352 0 0 0-.81-.658 2.381 2.381 0 0 0-1.045-.219c-.37 0-.657.056-.86.169-.202.112-.303.275-.303.489 0 .225.101.399.303.523.203.123.461.23.776.32.326.09.663.191 1.012.303.36.102.697.248 1.011.439.326.18.59.427.793.742.202.303.303.702.303 1.197 0 .787-.275 1.41-.826 1.871-.55.461-1.298.692-2.242.692ZM.97 12.335V.532h1.939v11.803H.969Zm1.332 0v-1.77h6.61v1.77h-6.61Zm0-5.176V5.456h6.036v1.703H2.302Zm0-4.856V.533h6.525v1.77H2.302Z" />
  </symbol>

  <symbol id='burgerOpen'>
    <path fill-rule="evenodd" clip-rule="evenodd"
      d="M3.5 7.875C3.5 7.39175 3.89175 7 4.375 7H23.625C24.1082 7 24.5 7.39175 24.5 7.875C24.5 8.35825 24.1082 8.75 23.625 8.75H4.375C3.89175 8.75 3.5 8.35825 3.5 7.875ZM3.5 14C3.5 13.5168 3.89175 13.125 4.375 13.125H23.625C24.1082 13.125 24.5 13.5168 24.5 14C24.5 14.4832 24.1082 14.875 23.625 14.875H4.375C3.89175 14.875 3.5 14.4832 3.5 14ZM13.125 20.125C13.125 19.6418 13.5168 19.25 14 19.25H23.625C24.1082 19.25 24.5 19.6418 24.5 20.125C24.5 20.6082 24.1082 21 23.625 21H14C13.5168 21 13.125 20.6082 13.125 20.125Z" />
  </symbol>

  <symbol id='burgerClose'>
    <path fill-rule="evenodd" clip-rule="evenodd"
      d="M5.46967 5.46967C5.76256 5.17678 6.23744 5.17678 6.53033 5.46967L12 10.9393L17.4697 5.46967C17.7626 5.17678 18.2374 5.17678 18.5303 5.46967C18.8232 5.76256 18.8232 6.23744 18.5303 6.53033L13.0607 12L18.5303 17.4697C18.8232 17.7626 18.8232 18.2374 18.5303 18.5303C18.2374 18.8232 17.7626 18.8232 17.4697 18.5303L12 13.0607L6.53033 18.5303C6.23744 18.8232 5.76256 18.8232 5.46967 18.5303C5.17678 18.2374 5.17678 17.7626 5.46967 17.4697L10.9393 12L5.46967 6.53033C5.17678 6.23744 5.17678 5.76256 5.46967 5.46967Z" />
  </symbol>

  <symbol id="bathroom">
    <g clip-path="url(#a)">
      <g clip-path="url(#b)">
        <path
          d="M.27 14.262h9.84v1.808h6.152v-1.805h2.443c.159 2.15.171 4.065-2.034 5.525-.027.018-.049.042-.109.095l.803.668-.973.931c-.29-.3-.604-.647-.946-.963-.1-.094-.279-.132-.425-.14-.238-.015-.48.023-.72.024-3.195.002-6.39.002-9.586.002-.153 0-.317.029-.458-.014-.426-.128-.697.07-.95.375-.217.26-.463.495-.688.733l-.884-.93.755-.67c-.2-.143-.351-.243-.494-.354-1.068-.823-1.645-1.914-1.72-3.255-.038-.664-.007-1.332-.007-2.03ZM.276 9.287C.27 9.168.26 9.061.26 8.954c0-1.74-.003-3.48 0-5.22C.264 1.82 1.591.485 3.501.5c.641.005 1.302-.009 1.918.137C6.512.895 7.2 1.653 7.532 2.72c.065.207.148.308.376.37 1.286.348 2.188 1.55 2.205 2.891.003.216 0 .432 0 .667H4.026c-.29-1.535.544-3.12 2.287-3.614-.157-.685-.832-1.263-1.54-1.288a21.512 21.512 0 0 0-1.608 0c-.922.036-1.665.884-1.669 1.9-.006 1.75-.001 3.502-.001 5.253v.386H.275v.001ZM10.093 13.033H.388c-.673 0-1.157-.32-1.328-.863-.256-.819.324-1.607 1.208-1.619.94-.012 1.881-.003 2.822-.003h7.003v2.484Z" />
        <path
          d="M15.024 14.871h-3.66c-.007-.116-.016-.22-.016-.326-.002-1.268-.002-2.537 0-3.805 0-.918.501-1.422 1.415-1.426.339-.001.678-.008 1.017.002.76.024 1.258.536 1.26 1.3.004 1.322.001 2.645 0 3.969 0 .086-.01.171-.016.286ZM16.283 13.02v-2.472c.595 0 1.182-.002 1.768 0 .305.002.617-.023.916.026.652.108 1.076.642 1.05 1.265-.027.612-.478 1.137-1.119 1.17-.859.045-1.722.011-2.614.011Z" />
      </g>
    </g>
    <defs>
      <clipPath id="a">
        <path fill="#fff" d="M0 .5h20v20H0z" />
      </clipPath>
      <clipPath id="b">
        <path fill="#fff" d="M-1 .5h21.017v21H-1z" />
      </clipPath>
    </defs>
  </symbol>

  <symbol id="bedroom">
    <g clip-path="url(#a)">
      <g clip-path="url(#b)">
        <path
          d="M10.012 17.96H1.018c-.303 0-.443.138-.443.438 0 .077.004.155-.001.232a2.31 2.31 0 0 1-.033.276c-.065.331-.382.596-.761.592a.774.774 0 0 1-.755-.65 1.68 1.68 0 0 1-.02-.259c-.001-1.761-.013-3.523.004-5.284.01-1.027.389-1.92 1.116-2.663a3.931 3.931 0 0 1 1.568-.977c.472-.16.96-.21 1.458-.21 4.611.002 9.223-.002 13.834.004 1.352.001 2.446.538 3.257 1.605.398.524.636 1.12.717 1.772.028.219.04.442.04.664.004 1.71.003 3.42.002 5.13 0 .268-.067.511-.29.688-.237.187-.5.235-.782.121a.728.728 0 0 1-.478-.601c-.02-.146-.017-.295-.02-.443-.007-.238-.107-.381-.307-.425-.044-.01-.09-.01-.136-.01h-8.976ZM9.902 2.5h5.833c.651 0 1.26.143 1.785.54.676.509 1.07 1.18 1.103 2.021.028.714.016 1.43.019 2.144.002.46 0 .921 0 1.382a.47.47 0 0 1-.013.124c-.034.125-.103.174-.232.15-.14-.026-.277-.083-.418-.098-.331-.036-.664-.06-.997-.078-.222-.011-.29-.05-.322-.266-.1-.68-.74-1.293-1.56-1.283-.913.01-1.826.002-2.739.002-.68 0-1.26.398-1.49 1.026-.033.09-.046.188-.063.283-.032.17-.096.233-.268.235-.36.004-.72.004-1.08 0-.165-.001-.23-.066-.26-.254a1.448 1.448 0 0 0-.316-.707c-.308-.375-.707-.58-1.198-.581-.942-.005-1.885-.003-2.828-.001-.792 0-1.412.61-1.513 1.279-.032.216-.097.254-.32.268-.367.024-.735.058-1.101.097-.113.012-.22.06-.333.078-.12.02-.176-.02-.21-.137a.511.511 0 0 1-.02-.143c0-1.104-.015-2.209.003-3.314.02-1.155.563-2.005 1.624-2.519.42-.202.876-.248 1.338-.248h5.576Z" />
      </g>
    </g>
    <defs>
      <clipPath id="a">
        <path fill="#fff" d="M0 .5h20v20H0z" />
      </clipPath>
      <clipPath id="b">
        <path fill="#fff" d="M-1 2.5h22v17H-1z" />
      </clipPath>
    </defs>
  </symbol>

  <symbol id="villa">
    <path fill-rule="evenodd"
      d="M4 17V4h-.25a.75.75 0 0 1 0-1.5h12.5a.75.75 0 0 1 0 1.5H16v13h.25a.75.75 0 0 1 0 1.5h-3.5a.75.75 0 0 1-.75-.75v-2.5a.75.75 0 0 0-.75-.75h-2.5a.75.75 0 0 0-.75.75v2.5a.75.75 0 0 1-.75.75h-3.5a.75.75 0 0 1 0-1.5H4ZM7 6a.5.5 0 0 1 .5-.5h1A.5.5 0 0 1 9 6v1a.5.5 0 0 1-.5.5h-1A.5.5 0 0 1 7 7V6Zm.5 3.5a.5.5 0 0 0-.5.5v1a.5.5 0 0 0 .5.5h1A.5.5 0 0 0 9 11v-1a.5.5 0 0 0-.5-.5h-1ZM11 6a.5.5 0 0 1 .5-.5h1a.5.5 0 0 1 .5.5v1a.5.5 0 0 1-.5.5h-1A.5.5 0 0 1 11 7V6Zm.5 3.5a.5.5 0 0 0-.5.5v1a.5.5 0 0 0 .5.5h1a.5.5 0 0 0 .5-.5v-1a.5.5 0 0 0-.5-.5h-1Z"
      clip-rule="evenodd" />
  </symbol>

  <symbol id="star">
    <path
      d="M10.159 1.31a1 1 0 0 1 1.682 0l3.04 4.731a1 1 0 0 0 .587.427l5.439 1.428a1 1 0 0 1 .52 1.6l-3.56 4.353a1 1 0 0 0-.225.69l.322 5.615a1 1 0 0 1-1.361.989l-5.24-2.042a1 1 0 0 0-.726 0l-5.24 2.042a1 1 0 0 1-1.361-.99l.322-5.613a1 1 0 0 0-.224-.69L.574 9.496a1 1 0 0 1 .52-1.6l5.438-1.429a1 1 0 0 0 .588-.427l3.039-4.731Z" />
  </symbol>

  <symbol id="mailMe">
    <path fill="#999"
      d="M14.167 5.833H15v.834a.833.833 0 1 0 1.667 0v-.834h.833a.833.833 0 0 0 0-1.666h-.833v-.834a.833.833 0 1 0-1.667 0v.834h-.833a.833.833 0 0 0 0 1.666ZM17.5 9.167a.833.833 0 0 0-.833.833v5a.833.833 0 0 1-.833.833H4.167A.834.834 0 0 1 3.334 15V7.008l4.9 4.909a2.5 2.5 0 0 0 3.533 0l2.058-2.059a.837.837 0 0 0-1.183-1.183l-2.058 2.058a.833.833 0 0 1-1.167 0l-4.908-4.9h6.325a.833.833 0 0 0 0-1.666H4.167a2.5 2.5 0 0 0-2.5 2.5V15a2.5 2.5 0 0 0 2.5 2.5h11.667a2.5 2.5 0 0 0 2.5-2.5v-5a.833.833 0 0 0-.834-.833Z" />
  </symbol>

  <symbol id="facebook">
    <path
      d="M13.12 3.32H15V.14A26.109 26.109 0 0 0 12.26 0C9.54 0 7.68 1.66 7.68 4.7v2.62H4.61v3.56h3.07V20h3.68v-9.12h3.06l.46-3.56h-3.52V5.05c0-1.05.28-1.73 1.76-1.73Z" />
  </symbol>

  <symbol id="instagram">
    <path
      d="M17.058 1.667H2.942a1.208 1.208 0 0 0-1.225 1.191v14.284a1.209 1.209 0 0 0 1.225 1.191h14.116a1.209 1.209 0 0 0 1.226-1.191V2.858a1.208 1.208 0 0 0-1.226-1.191ZM6.742 15.617h-2.5v-7.5h2.5v7.5Zm-1.25-8.55a1.3 1.3 0 1 1 0-2.6 1.308 1.308 0 1 1 0 2.6Zm10.267 8.55h-2.5v-4.025c0-1.009-.359-1.667-1.267-1.667a1.375 1.375 0 0 0-1.284.908 1.668 1.668 0 0 0-.083.609v4.166h-2.5v-7.5h2.5v1.059a2.5 2.5 0 0 1 2.258-1.25c1.667 0 2.876 1.075 2.876 3.383v4.317Z" />
  </symbol>

  <symbol id="twitter">
    <path
      d="M18.334 4.833a7.076 7.076 0 0 1-1.967.534 3.442 3.442 0 0 0 1.508-1.892c-.672.4-1.407.682-2.175.833a3.417 3.417 0 0 0-5.833 3.117A9.7 9.7 0 0 1 2.825 3.85c-.3.525-.458 1.12-.458 1.725a3.408 3.408 0 0 0 1.517 2.842 3.375 3.375 0 0 1-1.55-.425v.041a3.417 3.417 0 0 0 2.75 3.334c-.298.09-.606.138-.917.141a4.084 4.084 0 0 1-.642-.058 3.425 3.425 0 0 0 3.192 2.367 6.85 6.85 0 0 1-5.05 1.416 9.642 9.642 0 0 0 5.242 1.542 9.657 9.657 0 0 0 9.758-9.733V6.6a7.026 7.026 0 0 0 1.667-1.767Z" />
  </symbol>

  <symbol id="youTube">
    <path
      d="M19.167 8.092a7.083 7.083 0 0 0-.759-3.442 2.433 2.433 0 0 0-1.433-.833A65.3 65.3 0 0 0 10 3.558c-2.32-.04-4.64.044-6.95.25-.457.083-.88.298-1.216.617C1.084 5.117 1 6.3.917 7.3a40.242 40.242 0 0 0 0 5.4 7.96 7.96 0 0 0 .25 1.667c.1.42.304.81.592 1.133.339.336.772.563 1.241.65a37.64 37.64 0 0 0 5.417.275c2.917.042 5.475 0 8.5-.233a2.401 2.401 0 0 0 1.275-.65c.233-.234.407-.52.508-.834a8.817 8.817 0 0 0 .434-2.833c.033-.467.033-3.283.033-3.783Zm-11.05 4.283V7.217l4.933 2.591c-1.383.767-3.208 1.634-4.933 2.567Z" />
  </symbol>

  <symbol id="arrow">
    <path stroke="#4D4D4D" stroke-linecap="round" stroke-linejoin="round" stroke-width="1.5"
      d="m4.875 21.125 16.25-16.25m0 0H8.937m12.188 0v12.188" />
  </symbol>

  <symbol id="hero-big-btn_4">
    <rect width="47" height="47" x=".5" y=".5" stroke="url(#a)" rx="23.5" />
    <rect width="47" height="47" x=".5" y=".5" stroke="url(#b)" rx="23.5" />
    <rect width="35" height="35" x="6.5" y="6.5" stroke="url(#c)" rx="17.5" />
    <rect width="35" height="35" x="6.5" y="6.5" stroke="url(#d)" rx="17.5" />
    <path fill="#A685FA"
      d="M24 15.875c.345 0 .625.28.625.625v1.875a.625.625 0 1 1-1.25 0V16.5c0-.345.28-.625.625-.625ZM20.25 24a3.75 3.75 0 1 1 7.5 0 3.75 3.75 0 0 1-7.5 0ZM29.745 19.139a.625.625 0 1 0-.884-.884l-1.325 1.326a.625.625 0 1 0 .883.883l1.326-1.325ZM32.125 24c0 .345-.28.625-.625.625h-1.875a.625.625 0 1 1 0-1.25H31.5c.345 0 .625.28.625.625ZM28.861 29.745a.625.625 0 1 0 .884-.884l-1.326-1.326a.625.625 0 1 0-.884.884l1.326 1.326ZM24 29c.345 0 .625.28.625.625V31.5a.625.625 0 1 1-1.25 0v-1.875c0-.345.28-.625.625-.625ZM20.465 28.42a.625.625 0 1 0-.884-.885l-1.326 1.326a.625.625 0 1 0 .884.884l1.326-1.326ZM19 24c0 .345-.28.625-.625.625H16.5a.625.625 0 1 1 0-1.25h1.875c.345 0 .625.28.625.625ZM19.58 20.464a.625.625 0 1 0 .885-.883l-1.326-1.326a.625.625 0 1 0-.884.884l1.326 1.325Z" />
    <defs>
      <linearGradient id="a" x1="3.951" x2="50.195" y1="50.634" y2="-3.22" gradientUnits="userSpaceOnUse">
        <stop stop-color="#A685FA" />
        <stop offset=".324" stop-color="#A685FA" stop-opacity="0" />
      </linearGradient>
      <linearGradient id="b" x1="47.854" x2="3.951" y1="-6.146" y2="48" gradientUnits="userSpaceOnUse">
        <stop stop-color="#A685FA" />
        <stop offset=".577" stop-color="#A685FA" stop-opacity="0" />
      </linearGradient>
      <linearGradient id="c" x1="2.081" x2="41.855" y1="8.032" y2="42" gradientUnits="userSpaceOnUse">
        <stop stop-color="#A685FA" />
        <stop offset=".324" stop-color="#A685FA" stop-opacity="0" />
      </linearGradient>
      <linearGradient id="d" x1="49.113" x2="7.306" y1="50.129" y2="20.516" gradientUnits="userSpaceOnUse">
        <stop stop-color="#A685FA" />
        <stop offset=".577" stop-color="#A685FA" stop-opacity="0" />
      </linearGradient>
    </defs>
  </symbol>

  <symbol id="checkmark" width="20px" height="20px">
    <path stroke="#fff" stroke-linecap="round" stroke-linejoin="round" stroke-width="1.5"
      d="M16.25 6.875 10 13.125l-6.25-6.25" />
  </symbol>

  <symbol id="mail">
    <path
      d="M1.25 7.224v7.151a2.5 2.5 0 0 0 2.5 2.5h12.5a2.5 2.5 0 0 0 2.5-2.5v-7.15l-7.44 4.578a2.5 2.5 0 0 1-2.62 0L1.25 7.224Z" />
    <path
      d="M18.75 5.757v-.132a2.5 2.5 0 0 0-2.5-2.5H3.75a2.5 2.5 0 0 0-2.5 2.5v.132l8.095 4.981a1.25 1.25 0 0 0 1.31 0l8.095-4.981Z" />
  </symbol>

  <symbol id="phone">
    <path fill-rule="evenodd" clip-rule="evenodd"
      d="M1.25 3.75C1.25 2.36929 2.36929 1.25 3.75 1.25H4.89302C5.61 1.25 6.23498 1.73796 6.40887 2.43354L7.33037 6.11952C7.48284 6.72942 7.25495 7.37129 6.75202 7.74849L5.674 8.557C5.56206 8.64096 5.53772 8.7639 5.56917 8.84974C6.51542 11.4329 8.5671 13.4846 11.1503 14.4308C11.2361 14.4623 11.359 14.4379 11.443 14.326L12.2515 13.248C12.6287 12.7451 13.2706 12.5172 13.8805 12.6696L17.5665 13.5911C18.262 13.765 18.75 14.39 18.75 15.107V16.25C18.75 17.6307 17.6307 18.75 16.25 18.75H14.375C7.12626 18.75 1.25 12.8737 1.25 5.625V3.75Z" />
  </symbol>

  <symbol id="location">
    <path fill-rule="evenodd" clip-rule="evenodd"
      d="M9.61646 18.6259C9.64163 18.6405 9.66141 18.6517 9.67542 18.6596L9.69869 18.6726C9.88441 18.7745 10.1148 18.7738 10.3007 18.6729L10.3246 18.6596C10.3386 18.6517 10.3584 18.6405 10.3835 18.6259C10.4339 18.5967 10.5058 18.5542 10.5963 18.4985C10.7771 18.3872 11.0323 18.223 11.3372 18.0076C11.9459 17.5776 12.7581 16.9395 13.5721 16.1061C15.1922 14.4474 16.875 11.9551 16.875 8.75C16.875 4.95304 13.797 1.875 10 1.875C6.20304 1.875 3.125 4.95304 3.125 8.75C3.125 11.9551 4.80777 14.4474 6.42788 16.1061C7.24188 16.9395 8.05409 17.5776 8.66282 18.0076C8.96771 18.223 9.22295 18.3872 9.40375 18.4985C9.49419 18.5542 9.56612 18.5967 9.61646 18.6259ZM10 11.25C11.3807 11.25 12.5 10.1307 12.5 8.75C12.5 7.36929 11.3807 6.25 10 6.25C8.61929 6.25 7.5 7.36929 7.5 8.75C7.5 10.1307 8.61929 11.25 10 11.25Z" />
  </symbol>

  <symbol id="academicCap">
    <path
      d="M11.7 2.805a.75.75 0 0 1 .6 0A60.65 60.65 0 0 1 22.83 8.72a.75.75 0 0 1-.23 1.337 49.948 49.948 0 0 0-9.902 3.912l-.004.002c-.113.06-.227.119-.34.18a.75.75 0 0 1-.706 0A50.028 50.028 0 0 0 7.5 12.173v-.224c0-.131.067-.248.171-.311a54.615 54.615 0 0 1 4.653-2.52.75.75 0 1 0-.65-1.352 56.122 56.122 0 0 0-4.78 2.589 1.858 1.858 0 0 0-.858 1.228 49.803 49.803 0 0 0-4.635-1.527.75.75 0 0 1-.23-1.337A60.653 60.653 0 0 1 11.7 2.805Z" />
    <path
      d="M13.061 15.473a48.45 48.45 0 0 1 7.665-3.282c.134 1.414.22 2.843.256 4.284a.75.75 0 0 1-.461.711 47.874 47.874 0 0 0-8.105 4.342.75.75 0 0 1-.831 0 47.87 47.87 0 0 0-8.105-4.342.75.75 0 0 1-.46-.71c.035-1.442.12-2.87.255-4.286.92.304 1.83.634 2.725.99v1.27a1.5 1.5 0 0 0-.14 2.508c-.089.38-.221.753-.397 1.11.453.213.902.434 1.347.66a6.727 6.727 0 0 0 .55-1.607 1.5 1.5 0 0 0 .14-2.67v-.645a48.553 48.553 0 0 1 3.44 1.667 2.25 2.25 0 0 0 2.121 0Z" />
    <path
      d="M4.463 19.462c.419-.419.753-.89 1-1.395.453.214.902.435 1.347.662a6.742 6.742 0 0 1-1.287 1.794.75.75 0 0 1-1.06-1.06Z" />
  </symbol>

  <symbol id="community">
    <path fill-rule="evenodd"
      d="M8.25 6.75a3.75 3.75 0 1 1 7.5 0 3.75 3.75 0 0 1-7.5 0ZM15.75 9.75a3 3 0 1 1 6 0 3 3 0 0 1-6 0ZM2.25 9.75a3 3 0 1 1 6 0 3 3 0 0 1-6 0ZM6.31 15.117A6.745 6.745 0 0 1 12 12a6.745 6.745 0 0 1 6.709 7.498.75.75 0 0 1-.372.568A12.696 12.696 0 0 1 12 21.75c-2.305 0-4.47-.612-6.337-1.684a.75.75 0 0 1-.372-.568 6.787 6.787 0 0 1 1.019-4.38Z"
      clip-rule="evenodd" />
    <path
      d="M5.082 14.254a8.287 8.287 0 0 0-1.308 5.135 9.687 9.687 0 0 1-1.764-.44l-.115-.04a.563.563 0 0 1-.373-.487l-.01-.121a3.75 3.75 0 0 1 3.57-4.047ZM20.226 19.389a8.287 8.287 0 0 0-1.308-5.135 3.75 3.75 0 0 1 3.57 4.047l-.01.121a.563.563 0 0 1-.373.486l-.115.04c-.567.2-1.156.349-1.764.441Z" />
  </symbol>

  <symbol id="domain">
    <path stroke="#999" stroke-linecap="round" stroke-linejoin="round"
      d="M2.813 4.5c0-.932.755-1.688 1.687-1.688h1.688c.931 0 1.687.756 1.687 1.688v1.688c0 .931-.756 1.687-1.688 1.687H4.5a1.688 1.688 0 0 1-1.688-1.688V4.5ZM2.813 11.813c0-.933.755-1.688 1.687-1.688h1.688c.931 0 1.687.755 1.687 1.688V13.5c0 .932-.756 1.688-1.688 1.688H4.5A1.687 1.687 0 0 1 2.812 13.5v-1.688ZM10.125 4.5c0-.932.755-1.688 1.688-1.688H13.5c.932 0 1.688.756 1.688 1.688v1.688c0 .931-.756 1.687-1.688 1.687h-1.688a1.687 1.687 0 0 1-1.687-1.688V4.5ZM10.125 11.813c0-.933.755-1.688 1.688-1.688H13.5c.932 0 1.688.755 1.688 1.688V13.5c0 .932-.756 1.688-1.688 1.688h-1.688a1.687 1.687 0 0 1-1.687-1.688v-1.688Z" />
  </symbol>

  <symbol id="category">
    <path stroke="#999" stroke-linecap="round" stroke-linejoin="round"
      d="m3.313 10.125 7.874-8.438L9.5 7.875h6.188l-7.876 8.438L9.5 10.125H3.312Z" />
  </symbol>

  <symbol id="searchBtn" fill="none">
    <path stroke="#fff" stroke-linecap="round" stroke-linejoin="round" stroke-width="1.5"
      d="m17.5 18-4.33-4.33m0 0A6.25 6.25 0 1 0 4.33 4.83a6.25 6.25 0 0 0 8.838 8.838Z" />
  </symbol>

  <symbol id="selectIcon" fill="none">
    <path stroke="#fff" stroke-linecap="round" stroke-linejoin="round" d="M13.25.875 7 7.125.75.875" />
  </symbol>

  <symbol id="searchLocation" width="20" height="20" viewBox="0 0 20 20" fill="none">
    <path fill-rule="evenodd" clip-rule="evenodd"
      d="M9.61646 18.6259C9.64163 18.6405 9.66141 18.6517 9.67542 18.6596L9.69869 18.6726C9.88441 18.7745 10.1148 18.7738 10.3007 18.6729L10.3246 18.6596C10.3386 18.6517 10.3584 18.6405 10.3835 18.6259C10.4339 18.5967 10.5058 18.5542 10.5963 18.4985C10.7771 18.3872 11.0323 18.223 11.3372 18.0076C11.9459 17.5776 12.7581 16.9395 13.5721 16.1061C15.1922 14.4474 16.875 11.9551 16.875 8.75C16.875 4.95304 13.797 1.875 10 1.875C6.20304 1.875 3.125 4.95304 3.125 8.75C3.125 11.9551 4.80777 14.4474 6.42788 16.1061C7.24188 16.9395 8.05409 17.5776 8.66282 18.0076C8.96771 18.223 9.22295 18.3872 9.40375 18.4985C9.49419 18.5542 9.56612 18.5967 9.61646 18.6259ZM10 11.25C11.3807 11.25 12.5 10.1307 12.5 8.75C12.5 7.36929 11.3807 6.25 10 6.25C8.61929 6.25 7.5 7.36929 7.5 8.75C7.5 10.1307 8.61929 11.25 10 11.25Z"
      fill="#999999" />
  </symbol>

  <symbol id="searchType" width="20" height="20" fill="none">
    <path fill="#999"
      d="M15.839 3.087a.625.625 0 1 0-.427-1.174L5 5.699V2.5a.625.625 0 0 0-.625-.625h-1.25A.625.625 0 0 0 2.5 2.5v4.108l-.838.305a.625.625 0 1 0 .427 1.174l13.75-5Z" />
    <path fill="#999" fill-rule="evenodd"
      d="M2.516 9.262 15 4.722v2.852l3.339 1.214a.625.625 0 1 1-.427 1.174l-.412-.15v7.063h.625a.625.625 0 1 1 0 1.25H1.875a.625.625 0 1 1 0-1.25H2.5V9.268l.016-.006ZM15 16.875V8.904l1.25.454v7.517H15Zm-7.5-5a.625.625 0 0 0-.625.625v3.75c0 .345.28.625.625.625H10c.345 0 .625-.28.625-.625V12.5a.625.625 0 0 0-.625-.625H7.5Z"
      clip-rule="evenodd" />
  </symbol>

  <symbol id="searchPrice" width="20" height="20" fill="none">
    <path fill="#999" d="M10 6.25A1.875 1.875 0 1 0 10 10a1.875 1.875 0 0 0 0-3.75Z" />
    <path fill="#999" fill-rule="evenodd"
      d="M1.25 4.063c0-.863.7-1.563 1.563-1.563h14.374c.863 0 1.563.7 1.563 1.563v8.125c0 .862-.7 1.562-1.563 1.562H2.813c-.862 0-1.562-.7-1.562-1.563V4.063Zm5.625 4.062a3.125 3.125 0 1 1 6.25 0 3.125 3.125 0 0 1-6.25 0Zm8.75-.625a.625.625 0 0 0-.625.625v.006c0 .345.28.625.625.625h.006c.345 0 .625-.28.625-.625v-.006a.625.625 0 0 0-.625-.625h-.006ZM3.75 8.125c0-.345.28-.625.625-.625h.006c.345 0 .625.28.625.625v.006c0 .345-.28.625-.625.625h-.006a.625.625 0 0 1-.625-.625v-.006Z"
      clip-rule="evenodd" />
    <path fill="#999"
      d="M1.875 15a.625.625 0 1 0 0 1.25c4.5 0 8.858.602 13 1.73.992.27 2-.466 2-1.517v-.838A.625.625 0 0 0 16.25 15H1.875Z" />
  </symbol>

  <symbol id="searchSize" width="20" height="20" fill="none">
    <path
      d="M10.3149 1.33514C10.1203 1.22162 9.87968 1.22162 9.68508 1.33514L2.5 5.52643L10 9.90143L17.5 5.52643L10.3149 1.33514Z"
      fill="#999999" />
    <path d="M18.125 6.60898L10.625 10.984V18.484L17.8149 14.2899C18.0069 14.1779 18.125 13.9723 18.125 13.75V6.60898Z"
      fill="#999999" />
    <path d="M9.375 18.484V10.984L1.875 6.60898V13.75C1.875 13.9723 1.99307 14.1779 2.18508 14.2899L9.375 18.484Z"
      fill="#999999" />
  </symbol>

  <symbol id="searchYear" width="20" height="20" fill="none">
    <path fill="#999" fill-rule="evenodd"
      d="M5.625 1.875c.345 0 .625.28.625.625v1.25h7.5V2.5a.625.625 0 1 1 1.25 0v1.25h.625a2.5 2.5 0 0 1 2.5 2.5v9.375a2.5 2.5 0 0 1-2.5 2.5H4.375a2.5 2.5 0 0 1-2.5-2.5V6.25a2.5 2.5 0 0 1 2.5-2.5H5V2.5c0-.345.28-.625.625-.625Zm11.25 7.5c0-.69-.56-1.25-1.25-1.25H4.375c-.69 0-1.25.56-1.25 1.25v6.25c0 .69.56 1.25 1.25 1.25h11.25c.69 0 1.25-.56 1.25-1.25v-6.25Z"
      clip-rule="evenodd" />
  </symbol>


</svg>