<svg xmlns="http://www.w3.org/2000/svg">
  <symbol id='logoText'>
    <path fill="currentColor"
      d="M58.478 12.335v-4.67c0-.54-.174-.984-.523-1.332-.337-.349-.775-.523-1.315-.523-.36 0-.68.079-.96.236a1.68 1.68 0 0 0-.658.657 1.933 1.933 0 0 0-.237.962l-.725-.405c0-.618.135-1.164.405-1.636.27-.483.64-.86 1.113-1.13a3.161 3.161 0 0 1 1.619-.42 2.85 2.85 0 0 1 1.618.471c.472.304.843.703 1.113 1.197.27.484.405.99.405 1.518v5.075h-1.855Zm-5.547 0V4.242h1.854v8.093h-1.854ZM48.996 12.335V4.242h1.854v8.093h-1.854Zm.927-9.577c-.315 0-.579-.107-.792-.32a1.108 1.108 0 0 1-.304-.793c0-.315.101-.579.304-.792.213-.214.477-.32.792-.32.326 0 .59.106.793.32.202.213.303.477.303.792 0 .315-.101.579-.303.793-.203.213-.467.32-.793.32ZM43.732 12.504c-.81 0-1.54-.18-2.192-.54a4.226 4.226 0 0 1-1.534-1.517c-.371-.641-.557-1.36-.557-2.159 0-.798.186-1.511.557-2.14a4.135 4.135 0 0 1 1.5-1.518 4.164 4.164 0 0 1 2.125-.557c.753 0 1.416.174 1.99.523.584.348 1.04.826 1.365 1.433.338.607.506 1.298.506 2.074 0 .135-.011.275-.034.422a4.068 4.068 0 0 1-.067.455h-6.643V7.462h5.682l-.691.607c-.023-.494-.118-.91-.287-1.247a1.794 1.794 0 0 0-.725-.776c-.304-.18-.68-.27-1.13-.27-.472 0-.882.101-1.23.304a2.063 2.063 0 0 0-.81.86c-.191.36-.287.792-.287 1.298s.101.95.304 1.332c.202.382.489.68.86.894.37.202.798.303 1.281.303.416 0 .798-.073 1.147-.22.36-.145.663-.359.91-.64l1.18 1.197c-.393.461-.87.81-1.433 1.046a4.568 4.568 0 0 1-1.787.354ZM35.061 12.335V.87h1.855v11.466H35.06Zm-1.939-6.407V4.242h5.733v1.686h-5.733ZM27.439 12.504c-.73 0-1.394-.186-1.99-.557a4.088 4.088 0 0 1-1.4-1.5c-.336-.641-.505-1.355-.505-2.142 0-.798.169-1.512.506-2.141a4.052 4.052 0 0 1 1.4-1.518 3.608 3.608 0 0 1 1.989-.573c.618 0 1.163.135 1.636.405.483.258.865.618 1.146 1.079.281.46.422.983.422 1.568v2.327c0 .584-.14 1.107-.422 1.568-.27.46-.646.826-1.13 1.096-.483.258-1.034.388-1.652.388Zm.303-1.754c.686 0 1.237-.23 1.653-.691.427-.461.64-1.051.64-1.77 0-.484-.095-.911-.286-1.282a2.062 2.062 0 0 0-.81-.86c-.337-.214-.736-.32-1.197-.32-.45 0-.848.106-1.197.32a2.214 2.214 0 0 0-.81.86c-.19.371-.286.798-.286 1.281 0 .484.096.911.287 1.282.202.37.472.663.81.877a2.34 2.34 0 0 0 1.196.303Zm2.176 1.585V10.16l.32-1.973-.32-1.956v-1.99h1.854v8.094h-1.854ZM19.138 12.335V.87h1.855v11.466h-1.855ZM17.2 5.928V4.242h5.733v1.686H17.2ZM13.31 12.504c-.45 0-.883-.056-1.299-.169a4.802 4.802 0 0 1-1.146-.506 3.92 3.92 0 0 1-.91-.809l1.18-1.18c.28.326.6.573.96.742.371.157.787.236 1.248.236.416 0 .73-.062.944-.186a.59.59 0 0 0 .32-.54.65.65 0 0 0-.303-.573 2.752 2.752 0 0 0-.792-.337A28.779 28.779 0 0 0 12.5 8.88a5.589 5.589 0 0 1-1.011-.405 2.28 2.28 0 0 1-.776-.725c-.202-.304-.304-.697-.304-1.18 0-.517.118-.961.354-1.332.248-.371.59-.658 1.029-.86.45-.203.984-.304 1.602-.304.652 0 1.225.118 1.72.354.505.225.927.568 1.264 1.029l-1.18 1.18a2.352 2.352 0 0 0-.81-.658 2.381 2.381 0 0 0-1.045-.219c-.37 0-.657.056-.86.169-.202.112-.303.275-.303.489 0 .225.101.399.303.523.203.123.461.23.776.32.326.09.663.191 1.012.303.36.102.697.248 1.011.439.326.18.59.427.793.742.202.303.303.702.303 1.197 0 .787-.275 1.41-.826 1.871-.55.461-1.298.692-2.242.692ZM.97 12.335V.532h1.939v11.803H.969Zm1.332 0v-1.77h6.61v1.77h-6.61Zm0-5.176V5.456h6.036v1.703H2.302Zm0-4.856V.533h6.525v1.77H2.302Z" />
  </symbol>

  <symbol id='burgerOpen'>
    <path fill="currentColor" fill-rule="evenodd" clip-rule="evenodd"
      d="M3.5 7.875C3.5 7.39175 3.89175 7 4.375 7H23.625C24.1082 7 24.5 7.39175 24.5 7.875C24.5 8.35825 24.1082 8.75 23.625 8.75H4.375C3.89175 8.75 3.5 8.35825 3.5 7.875ZM3.5 14C3.5 13.5168 3.89175 13.125 4.375 13.125H23.625C24.1082 13.125 24.5 13.5168 24.5 14C24.5 14.4832 24.1082 14.875 23.625 14.875H4.375C3.89175 14.875 3.5 14.4832 3.5 14ZM13.125 20.125C13.125 19.6418 13.5168 19.25 14 19.25H23.625C24.1082 19.25 24.5 19.6418 24.5 20.125C24.5 20.6082 24.1082 21 23.625 21H14C13.5168 21 13.125 20.6082 13.125 20.125Z" />
  </symbol>

  <symbol id='burgerClose'>
    <path fill="currentColor" fill-rule="evenodd" clip-rule="evenodd"
      d="M5.46967 5.46967C5.76256 5.17678 6.23744 5.17678 6.53033 5.46967L12 10.9393L17.4697 5.46967C17.7626 5.17678 18.2374 5.17678 18.5303 5.46967C18.8232 5.76256 18.8232 6.23744 18.5303 6.53033L13.0607 12L18.5303 17.4697C18.8232 17.7626 18.8232 18.2374 18.5303 18.5303C18.2374 18.8232 17.7626 18.8232 17.4697 18.5303L12 13.0607L6.53033 18.5303C6.23744 18.8232 5.76256 18.8232 5.46967 18.5303C5.17678 18.2374 5.17678 17.7626 5.46967 17.4697L10.9393 12L5.46967 6.53033C5.17678 6.23744 5.17678 5.76256 5.46967 5.46967Z" />
  </symbol>

  <symbol id="bathroom">
    <g clip-path="url(#a)">
      <g clip-path="url(#b)">
        <path fill="currentColor"
          d="M.27 14.262h9.84v1.808h6.152v-1.805h2.443c.159 2.15.171 4.065-2.034 5.525-.027.018-.049.042-.109.095l.803.668-.973.931c-.29-.3-.604-.647-.946-.963-.1-.094-.279-.132-.425-.14-.238-.015-.48.023-.72.024-3.195.002-6.39.002-9.586.002-.153 0-.317.029-.458-.014-.426-.128-.697.07-.95.375-.217.26-.463.495-.688.733l-.884-.93.755-.67c-.2-.143-.351-.243-.494-.354-1.068-.823-1.645-1.914-1.72-3.255-.038-.664-.007-1.332-.007-2.03ZM.276 9.287C.27 9.168.26 9.061.26 8.954c0-1.74-.003-3.48 0-5.22C.264 1.82 1.591.485 3.501.5c.641.005 1.302-.009 1.918.137C6.512.895 7.2 1.653 7.532 2.72c.065.207.148.308.376.37 1.286.348 2.188 1.55 2.205 2.891.003.216 0 .432 0 .667H4.026c-.29-1.535.544-3.12 2.287-3.614-.157-.685-.832-1.263-1.54-1.288a21.512 21.512 0 0 0-1.608 0c-.922.036-1.665.884-1.669 1.9-.006 1.75-.001 3.502-.001 5.253v.386H.275v.001ZM10.093 13.033H.388c-.673 0-1.157-.32-1.328-.863-.256-.819.324-1.607 1.208-1.619.94-.012 1.881-.003 2.822-.003h7.003v2.484Z" />
        <path fill="currentColor"
          d="M15.024 14.871h-3.66c-.007-.116-.016-.22-.016-.326-.002-1.268-.002-2.537 0-3.805 0-.918.501-1.422 1.415-1.426.339-.001.678-.008 1.017.002.76.024 1.258.536 1.26 1.3.004 1.322.001 2.645 0 3.969 0 .086-.01.171-.016.286ZM16.283 13.02v-2.472c.595 0 1.182-.002 1.768 0 .305.002.617-.023.916.026.652.108 1.076.642 1.05 1.265-.027.612-.478 1.137-1.119 1.17-.859.045-1.722.011-2.614.011Z" />
      </g>
    </g>
    <defs>
      <clipPath id="a">
        <path fill="currentColor" d="M0 .5h20v20H0z" />
      </clipPath>
      <clipPath id="b">
        <path fill="currentColor" d="M-1 .5h21.017v21H-1z" />
      </clipPath>
    </defs>
  </symbol>

  <symbol id="bedroom">
    <g clip-path="url(#a)">
      <g clip-path="url(#b)">
        <path fill="currentColor"
          d="M10.012 17.96H1.018c-.303 0-.443.138-.443.438 0 .077.004.155-.001.232a2.31 2.31 0 0 1-.033.276c-.065.331-.382.596-.761.592a.774.774 0 0 1-.755-.65 1.68 1.68 0 0 1-.02-.259c-.001-1.761-.013-3.523.004-5.284.01-1.027.389-1.92 1.116-2.663a3.931 3.931 0 0 1 1.568-.977c.472-.16.96-.21 1.458-.21 4.611.002 9.223-.002 13.834.004 1.352.001 2.446.538 3.257 1.605.398.524.636 1.12.717 1.772.028.219.04.442.04.664.004 1.71.003 3.42.002 5.13 0 .268-.067.511-.29.688-.237.187-.5.235-.782.121a.728.728 0 0 1-.478-.601c-.02-.146-.017-.295-.02-.443-.007-.238-.107-.381-.307-.425-.044-.01-.09-.01-.136-.01h-8.976ZM9.902 2.5h5.833c.651 0 1.26.143 1.785.54.676.509 1.07 1.18 1.103 2.021.028.714.016 1.43.019 2.144.002.46 0 .921 0 1.382a.47.47 0 0 1-.013.124c-.034.125-.103.174-.232.15-.14-.026-.277-.083-.418-.098-.331-.036-.664-.06-.997-.078-.222-.011-.29-.05-.322-.266-.1-.68-.74-1.293-1.56-1.283-.913.01-1.826.002-2.739.002-.68 0-1.26.398-1.49 1.026-.033.09-.046.188-.063.283-.032.17-.096.233-.268.235-.36.004-.72.004-1.08 0-.165-.001-.23-.066-.26-.254a1.448 1.448 0 0 0-.316-.707c-.308-.375-.707-.58-1.198-.581-.942-.005-1.885-.003-2.828-.001-.792 0-1.412.61-1.513 1.279-.032.216-.097.254-.32.268-.367.024-.735.058-1.101.097-.113.012-.22.06-.333.078-.12.02-.176-.02-.21-.137a.511.511 0 0 1-.02-.143c0-1.104-.015-2.209.003-3.314.02-1.155.563-2.005 1.624-2.519.42-.202.876-.248 1.338-.248h5.576Z" />
      </g>
    </g>
    <defs>
      <clipPath id="a">
        <path fill="currentColor" d="M0 .5h20v20H0z" />
      </clipPath>
      <clipPath id="b">
        <path fill="currentColor" d="M-1 2.5h22v17H-1z" />
      </clipPath>
    </defs>
  </symbol>

  <symbol id="villa">
    <path fill="currentColor" fill-rule="evenodd"
      d="M4 17V4h-.25a.75.75 0 0 1 0-1.5h12.5a.75.75 0 0 1 0 1.5H16v13h.25a.75.75 0 0 1 0 1.5h-3.5a.75.75 0 0 1-.75-.75v-2.5a.75.75 0 0 0-.75-.75h-2.5a.75.75 0 0 0-.75.75v2.5a.75.75 0 0 1-.75.75h-3.5a.75.75 0 0 1 0-1.5H4ZM7 6a.5.5 0 0 1 .5-.5h1A.5.5 0 0 1 9 6v1a.5.5 0 0 1-.5.5h-1A.5.5 0 0 1 7 7V6Zm.5 3.5a.5.5 0 0 0-.5.5v1a.5.5 0 0 0 .5.5h1A.5.5 0 0 0 9 11v-1a.5.5 0 0 0-.5-.5h-1ZM11 6a.5.5 0 0 1 .5-.5h1a.5.5 0 0 1 .5.5v1a.5.5 0 0 1-.5.5h-1A.5.5 0 0 1 11 7V6Zm.5 3.5a.5.5 0 0 0-.5.5v1a.5.5 0 0 0 .5.5h1a.5.5 0 0 0 .5-.5v-1a.5.5 0 0 0-.5-.5h-1Z"
      clip-rule="evenodd" />
  </symbol>

  <symbol id="facebook">
    <path
      d="M8.61936 3.32002H10.4994V0.14003C9.58911 0.0453769 8.67452 -0.00135428 7.75936 2.98641e-05C5.03937 2.98641e-05 3.17937 1.66003 3.17937 4.70002V7.32002H0.109375V10.88H3.17937V20H6.85936V10.88H9.91936L10.3794 7.32002H6.85936V5.05002C6.85936 4.00002 7.13936 3.32002 8.61936 3.32002Z"
      fill="currentColor" />
  </symbol>

  <symbol id="instagram">
    <path
      d="M15.5565 0.66662H1.43984C1.28116 0.664417 1.12359 0.693493 0.976148 0.75219C0.828702 0.810887 0.694263 0.898054 0.580508 1.00871C0.466753 1.11937 0.375912 1.25136 0.31317 1.39713C0.250429 1.5429 0.217017 1.6996 0.214844 1.85829V16.1416C0.217017 16.3003 0.250429 16.457 0.31317 16.6028C0.375912 16.7486 0.466753 16.8805 0.580508 16.9912C0.694263 17.1019 0.828702 17.189 0.976148 17.2477C1.12359 17.3064 1.28116 17.3355 1.43984 17.3333H15.5565C15.7152 17.3355 15.8728 17.3064 16.0202 17.2477C16.1677 17.189 16.3021 17.1019 16.4158 16.9912C16.5296 16.8805 16.6204 16.7486 16.6832 16.6028C16.7459 16.457 16.7793 16.3003 16.7815 16.1416V1.85829C16.7793 1.6996 16.7459 1.5429 16.6832 1.39713C16.6204 1.25136 16.5296 1.11937 16.4158 1.00871C16.3021 0.898054 16.1677 0.810887 16.0202 0.75219C15.8728 0.693493 15.7152 0.664417 15.5565 0.66662ZM5.23984 14.6166H2.73984V7.11662H5.23984V14.6166ZM3.98984 6.06662C3.64506 6.06662 3.3144 5.92966 3.0706 5.68586C2.82681 5.44206 2.68984 5.1114 2.68984 4.76662C2.68984 4.42184 2.82681 4.09118 3.0706 3.84738C3.3144 3.60358 3.64506 3.46662 3.98984 3.46662C4.17292 3.44586 4.35832 3.464 4.53391 3.51986C4.70949 3.57571 4.87129 3.66803 5.00872 3.79076C5.14616 3.91348 5.25611 4.06385 5.3314 4.23202C5.40669 4.40019 5.44561 4.58237 5.44561 4.76662C5.44561 4.95087 5.40669 5.13305 5.3314 5.30122C5.25611 5.46939 5.14616 5.61976 5.00872 5.74249C4.87129 5.86521 4.70949 5.95753 4.53391 6.01338C4.35832 6.06924 4.17292 6.08738 3.98984 6.06662ZM14.2565 14.6166H11.7565V10.5916C11.7565 9.58329 11.3982 8.92495 10.4898 8.92495C10.2087 8.92701 9.935 9.01519 9.70554 9.1776C9.47608 9.34001 9.30191 9.56885 9.20651 9.83329C9.1413 10.0292 9.11304 10.2354 9.12318 10.4416V14.6083H6.62318C6.62318 14.6083 6.62318 7.79162 6.62318 7.10829H9.12318V8.16662C9.35029 7.77254 9.6806 7.44789 10.0785 7.22762C10.4765 7.00736 10.927 6.89983 11.3815 6.91662C13.0482 6.91662 14.2565 7.99162 14.2565 10.3V14.6166Z"
      fill="currentColor" />
  </symbol>

  <symbol id="twitter">
    <path
      d="M16.8346 1.83326C16.2083 2.10501 15.5458 2.28465 14.868 2.3666C15.5831 1.93936 16.119 1.26725 16.3763 0.474931C15.7043 0.874983 14.9686 1.15684 14.2013 1.30826C13.6884 0.752074 13.0054 0.381844 12.2595 0.25564C11.5135 0.129436 10.7468 0.254396 10.0795 0.610922C9.41217 0.967448 8.88208 1.53537 8.57234 2.22563C8.26259 2.91588 8.19071 3.68942 8.36797 4.42493C7.00916 4.3562 5.68 4.00239 4.46685 3.38648C3.25369 2.77057 2.18367 1.90634 1.3263 0.84993C1.02558 1.37507 0.867568 1.96978 0.867969 2.57493C0.866902 3.13692 1.00482 3.69044 1.26943 4.18623C1.53405 4.68202 1.91715 5.10469 2.38464 5.4166C1.84128 5.40181 1.30954 5.25601 0.834635 4.9916V5.03326C0.838708 5.82067 1.11463 6.58251 1.61573 7.1899C2.11683 7.7973 2.81235 8.21297 3.58464 8.3666C3.28735 8.45707 2.9787 8.50477 2.66797 8.50826C2.45288 8.50575 2.23832 8.48625 2.0263 8.44993C2.24623 9.12727 2.67182 9.71922 3.24386 10.1434C3.81591 10.5676 4.50595 10.8029 5.21797 10.8166C4.01564 11.7627 2.5312 12.279 1.0013 12.2833C0.722748 12.2842 0.444415 12.2675 0.167969 12.2333C1.72999 13.2418 3.55031 13.7772 5.40964 13.7749C6.69271 13.7883 7.96558 13.5458 9.1539 13.0617C10.3422 12.5775 11.4222 11.8615 12.3306 10.9553C13.2391 10.0492 13.9579 8.97109 14.4451 7.78402C14.9323 6.59695 15.178 5.3247 15.168 4.0416C15.168 3.89993 15.168 3.74993 15.168 3.59993C15.8219 3.11227 16.3859 2.51445 16.8346 1.83326Z"
      fill="currentColor" />
  </symbol>

  <symbol id="youTube">
    <path fill="currentColor"
      d="M18.665 5.092a7.083 7.083 0 0 0-.758-3.442 2.434 2.434 0 0 0-1.434-.833A65.3 65.3 0 0 0 9.498.558c-2.32-.04-4.64.044-6.95.25-.457.083-.88.298-1.216.617C.582 2.117.498 3.3.415 4.3a40.242 40.242 0 0 0 0 5.4 7.96 7.96 0 0 0 .25 1.667c.1.42.304.81.592 1.133.339.336.772.563 1.241.65a37.64 37.64 0 0 0 5.417.275c2.917.042 5.475 0 8.5-.233a2.4 2.4 0 0 0 1.275-.65c.233-.234.407-.52.508-.834a8.816 8.816 0 0 0 .434-2.833c.033-.467.033-3.283.033-3.783ZM7.615 9.375V4.217l4.933 2.591c-1.383.767-3.208 1.634-4.933 2.567Z" />
  </symbol>

  <symbol id="arrow">
    <path stroke="currentColor" stroke-linecap="round" stroke-linejoin="round" stroke-width="1.5"
      d="M1.375 17.125 17.625.875m0 0H5.437m12.188 0v12.188" />
  </symbol>

  <symbol id="mail">
    <path fill="currentColor"
      d="M.25 4.224v7.151a2.5 2.5 0 0 0 2.5 2.5h12.5a2.5 2.5 0 0 0 2.5-2.5v-7.15l-7.44 4.578a2.5 2.5 0 0 1-2.62 0L.25 4.224Z" />
    <path fill="currentColor"
      d="M17.75 2.757v-.132a2.5 2.5 0 0 0-2.5-2.5H2.75a2.5 2.5 0 0 0-2.5 2.5v.132l8.095 4.981a1.25 1.25 0 0 0 1.31 0l8.095-4.981Z" />
  </symbol>

  <symbol id="phone">
    <path fill="currentColor" fill-rule="evenodd"
      d="M.25 2.75a2.5 2.5 0 0 1 2.5-2.5h1.143c.717 0 1.342.488 1.516 1.184L6.33 5.12a1.563 1.563 0 0 1-.578 1.628l-1.078.809c-.112.084-.136.207-.105.293a9.404 9.404 0 0 0 5.581 5.58c.086.032.209.008.293-.104l.809-1.078a1.563 1.563 0 0 1 1.628-.578l3.687.921a1.563 1.563 0 0 1 1.183 1.516v1.143a2.5 2.5 0 0 1-2.5 2.5h-1.875C6.126 17.75.25 11.874.25 4.625V2.75Z"
      clip-rule="evenodd" />
  </symbol>

  <symbol id="location">
    <path fill="currentColor" fill-rule="evenodd"
      d="m6.616 17.626.06.034.023.013a.634.634 0 0 0 .602 0l.024-.013a5.398 5.398 0 0 0 .271-.162c.181-.11.436-.275.741-.49.609-.43 1.421-1.068 2.235-1.902 1.62-1.659 3.303-4.15 3.303-7.356a6.875 6.875 0 1 0-13.75 0c0 3.205 1.683 5.697 3.303 7.356A16.32 16.32 0 0 0 6.404 17.5l.212.127ZM7 10.25a2.5 2.5 0 1 0 0-5 2.5 2.5 0 0 0 0 5Z"
      clip-rule="evenodd" />
  </symbol>

  <symbol id="star">
    <path fill-rule="evenodd" clip-rule="evenodd"
      d="M8.78735 1.21069C9.23569 0.132743 10.7627 0.132742 11.2111 1.21069L13.2931 6.2164L18.6972 6.64965C19.8609 6.74294 20.3328 8.19523 19.4461 8.95474L15.3288 12.4817L16.5867 17.7552C16.8576 18.8908 15.6222 19.7883 14.6259 19.1798L9.99921 16.3538L5.37256 19.1798C4.37624 19.7883 3.14084 18.8908 3.41173 17.7552L4.66964 12.4817L0.552299 8.95474C-0.334341 8.19524 0.137532 6.74294 1.30127 6.64965L6.70536 6.2164L8.78735 1.21069Z"
      fill="currentColor" />
  </symbol>

  <symbol id="academicCap">
    <path fill="currentColor"
      d="M11.7.805a.75.75 0 0 1 .6 0A60.65 60.65 0 0 1 22.83 6.72a.75.75 0 0 1-.23 1.337 49.885 49.885 0 0 0-9.902 3.912l-.004.002c-.113.06-.227.119-.34.18a.75.75 0 0 1-.706 0A50.028 50.028 0 0 0 7.5 10.173V9.95c0-.131.067-.248.171-.311a54.628 54.628 0 0 1 4.653-2.52.75.75 0 1 0-.65-1.352 56.117 56.117 0 0 0-4.78 2.589 1.858 1.858 0 0 0-.858 1.228 49.858 49.858 0 0 0-4.635-1.527.75.75 0 0 1-.23-1.337A60.653 60.653 0 0 1 11.7.805Z" />
    <path fill="currentColor"
      d="M13.061 13.473a48.45 48.45 0 0 1 7.665-3.282c.134 1.414.22 2.843.256 4.284a.75.75 0 0 1-.461.711 47.874 47.874 0 0 0-8.105 4.342.75.75 0 0 1-.831 0 47.87 47.87 0 0 0-8.105-4.342.75.75 0 0 1-.46-.71c.035-1.442.12-2.87.255-4.286.92.304 1.83.634 2.725.99v1.27a1.5 1.5 0 0 0-.14 2.508c-.089.38-.221.753-.397 1.11.453.213.902.434 1.347.66a6.727 6.727 0 0 0 .55-1.607 1.5 1.5 0 0 0 .14-2.67v-.645a48.553 48.553 0 0 1 3.44 1.667 2.25 2.25 0 0 0 2.121 0Z" />
    <path fill="currentColor"
      d="M4.463 17.462c.419-.419.753-.89 1-1.395.453.214.902.435 1.347.662a6.742 6.742 0 0 1-1.287 1.794.75.75 0 0 1-1.06-1.06Z" />
  </symbol>

  <symbol id="community">
    <path fill="currentColor" fill-rule="evenodd"
      d="M7.25 3.75a3.75 3.75 0 1 1 7.5 0 3.75 3.75 0 0 1-7.5 0ZM14.75 6.75a3 3 0 1 1 6 0 3 3 0 0 1-6 0ZM1.25 6.75a3 3 0 1 1 6 0 3 3 0 0 1-6 0ZM5.31 12.117A6.745 6.745 0 0 1 11 9a6.745 6.745 0 0 1 6.709 7.498.75.75 0 0 1-.372.568A12.696 12.696 0 0 1 11 18.75c-2.305 0-4.47-.612-6.337-1.684a.75.75 0 0 1-.372-.568 6.787 6.787 0 0 1 1.019-4.38Z"
      clip-rule="evenodd" />
    <path fill="currentColor"
      d="M4.082 11.254a8.287 8.287 0 0 0-1.308 5.135 9.687 9.687 0 0 1-1.764-.44l-.115-.04a.563.563 0 0 1-.373-.487l-.01-.121a3.75 3.75 0 0 1 3.57-4.047ZM19.226 16.389a8.287 8.287 0 0 0-1.308-5.135 3.75 3.75 0 0 1 3.57 4.047l-.01.121a.563.563 0 0 1-.373.486l-.115.04c-.567.2-1.156.349-1.764.441Z" />
  </symbol>

  <symbol id="domain">
    <path stroke="currentColor" stroke-linecap="round" stroke-linejoin="round"
      d="M2.813 4.5c0-.932.755-1.688 1.687-1.688h1.688c.931 0 1.687.756 1.687 1.688v1.688c0 .931-.756 1.687-1.688 1.687H4.5a1.688 1.688 0 0 1-1.688-1.688V4.5ZM2.813 11.813c0-.933.755-1.688 1.687-1.688h1.688c.931 0 1.687.755 1.687 1.688V13.5c0 .932-.756 1.688-1.688 1.688H4.5A1.687 1.687 0 0 1 2.812 13.5v-1.688ZM10.125 4.5c0-.932.755-1.688 1.688-1.688H13.5c.932 0 1.688.756 1.688 1.688v1.688c0 .931-.756 1.687-1.688 1.687h-1.688a1.687 1.687 0 0 1-1.687-1.688V4.5ZM10.125 11.813c0-.933.755-1.688 1.688-1.688H13.5c.932 0 1.688.755 1.688 1.688V13.5c0 .932-.756 1.688-1.688 1.688h-1.688a1.687 1.687 0 0 1-1.687-1.688v-1.688Z" />
  </symbol>

  <symbol id="category">
    <path stroke="currentColor" stroke-linecap="round" stroke-linejoin="round"
      d="m3.313 10.125 7.874-8.438L9.5 7.875h6.188l-7.876 8.438L9.5 10.125H3.312Z" />
  </symbol>

  <symbol id="searchBtn">
    <path stroke="currentColor" stroke-linecap="round" stroke-linejoin="round" stroke-width="1.5"
      d="m17.5 18-4.33-4.33m0 0A6.25 6.25 0 1 0 4.33 4.83a6.25 6.25 0 0 0 8.838 8.838Z" />
  </symbol>

  <symbol id="selectIcon">
    <path stroke="currentColor" stroke-linecap="round" stroke-linejoin="round" d="M13.25.875 7 7.125.75.875" />
  </symbol>

  <symbol id="searchLocation">
    <path fill-rule="evenodd" clip-rule="evenodd"
      d="M9.61646 18.6259C9.64163 18.6405 9.66141 18.6517 9.67542 18.6596L9.69869 18.6726C9.88441 18.7745 10.1148 18.7738 10.3007 18.6729L10.3246 18.6596C10.3386 18.6517 10.3584 18.6405 10.3835 18.6259C10.4339 18.5967 10.5058 18.5542 10.5963 18.4985C10.7771 18.3872 11.0323 18.223 11.3372 18.0076C11.9459 17.5776 12.7581 16.9395 13.5721 16.1061C15.1922 14.4474 16.875 11.9551 16.875 8.75C16.875 4.95304 13.797 1.875 10 1.875C6.20304 1.875 3.125 4.95304 3.125 8.75C3.125 11.9551 4.80777 14.4474 6.42788 16.1061C7.24188 16.9395 8.05409 17.5776 8.66282 18.0076C8.96771 18.223 9.22295 18.3872 9.40375 18.4985C9.49419 18.5542 9.56612 18.5967 9.61646 18.6259ZM10 11.25C11.3807 11.25 12.5 10.1307 12.5 8.75C12.5 7.36929 11.3807 6.25 10 6.25C8.61929 6.25 7.5 7.36929 7.5 8.75C7.5 10.1307 8.61929 11.25 10 11.25Z"
      fill="currentColor" />
  </symbol>

  <symbol id="searchType">
    <path fill="currentColor"
      d="M15.839 3.087a.625.625 0 1 0-.427-1.174L5 5.699V2.5a.625.625 0 0 0-.625-.625h-1.25A.625.625 0 0 0 2.5 2.5v4.108l-.838.305a.625.625 0 1 0 .427 1.174l13.75-5Z" />
    <path fill="currentColor" fill-rule="evenodd"
      d="M2.516 9.262 15 4.722v2.852l3.339 1.214a.625.625 0 1 1-.427 1.174l-.412-.15v7.063h.625a.625.625 0 1 1 0 1.25H1.875a.625.625 0 1 1 0-1.25H2.5V9.268l.016-.006ZM15 16.875V8.904l1.25.454v7.517H15Zm-7.5-5a.625.625 0 0 0-.625.625v3.75c0 .345.28.625.625.625H10c.345 0 .625-.28.625-.625V12.5a.625.625 0 0 0-.625-.625H7.5Z"
      clip-rule="evenodd" />
  </symbol>

  <symbol id="searchPrice">
    <path fill="currentColor" d="M10 6.25A1.875 1.875 0 1 0 10 10a1.875 1.875 0 0 0 0-3.75Z" />
    <path fill="currentColor" fill-rule="evenodd"
      d="M1.25 4.063c0-.863.7-1.563 1.563-1.563h14.374c.863 0 1.563.7 1.563 1.563v8.125c0 .862-.7 1.562-1.563 1.562H2.813c-.862 0-1.562-.7-1.562-1.563V4.063Zm5.625 4.062a3.125 3.125 0 1 1 6.25 0 3.125 3.125 0 0 1-6.25 0Zm8.75-.625a.625.625 0 0 0-.625.625v.006c0 .345.28.625.625.625h.006c.345 0 .625-.28.625-.625v-.006a.625.625 0 0 0-.625-.625h-.006ZM3.75 8.125c0-.345.28-.625.625-.625h.006c.345 0 .625.28.625.625v.006c0 .345-.28.625-.625.625h-.006a.625.625 0 0 1-.625-.625v-.006Z"
      clip-rule="evenodd" />
    <path fill="currentColor"
      d="M1.875 15a.625.625 0 1 0 0 1.25c4.5 0 8.858.602 13 1.73.992.27 2-.466 2-1.517v-.838A.625.625 0 0 0 16.25 15H1.875Z" />
  </symbol>

  <symbol id="searchSize">
    <path
      d="M10.3149 1.33514C10.1203 1.22162 9.87968 1.22162 9.68508 1.33514L2.5 5.52643L10 9.90143L17.5 5.52643L10.3149 1.33514Z"
      fill="currentColor" />
    <path d="M18.125 6.60898L10.625 10.984V18.484L17.8149 14.2899C18.0069 14.1779 18.125 13.9723 18.125 13.75V6.60898Z"
      fill="currentColor" />
    <path d="M9.375 18.484V10.984L1.875 6.60898V13.75C1.875 13.9723 1.99307 14.1779 2.18508 14.2899L9.375 18.484Z"
      fill="currentColor" />
  </symbol>

  <symbol id="searchYear">
    <path fill="currentColor" fill-rule="evenodd"
      d="M5.625 1.875c.345 0 .625.28.625.625v1.25h7.5V2.5a.625.625 0 1 1 1.25 0v1.25h.625a2.5 2.5 0 0 1 2.5 2.5v9.375a2.5 2.5 0 0 1-2.5 2.5H4.375a2.5 2.5 0 0 1-2.5-2.5V6.25a2.5 2.5 0 0 1 2.5-2.5H5V2.5c0-.345.28-.625.625-.625Zm11.25 7.5c0-.69-.56-1.25-1.25-1.25H4.375c-.69 0-1.25.56-1.25 1.25v6.25c0 .69.56 1.25 1.25 1.25h11.25c.69 0 1.25-.56 1.25-1.25v-6.25Z"
      clip-rule="evenodd" />
  </symbol>


  <symbol id="gradient-icon__hero-1">
    <path fill="currentColor"
      d="M.879 5.121A3 3 0 0 0 5.5 4.66 2.997 2.997 0 0 0 8 5.999a2.997 2.997 0 0 0 2.5-1.34 3 3 0 1 0 4.622-3.78l-.293-.293A2 2 0 0 0 13.415 0H2.585a2 2 0 0 0-1.414.586L.88.878a3 3 0 0 0 0 4.243ZM1 7.032a4.507 4.507 0 0 0 4.5-.29A4.48 4.48 0 0 0 8 7.5a4.48 4.48 0 0 0 2.5-.758 4.507 4.507 0 0 0 4.5.29V14.5h.25a.75.75 0 0 1 0 1.5h-4.5a.75.75 0 0 1-.75-.75v-3.5a.75.75 0 0 0-.75-.75h-2.5a.75.75 0 0 0-.75.75v3.5a.75.75 0 0 1-.75.75H.75a.75.75 0 0 1 0-1.5H1V7.032Z" />
  </symbol>

  <symbol id="gradient-icon__hero-2">
    <path fill="currentColor" d="M9 4.25A1.875 1.875 0 1 0 9 8a1.875 1.875 0 0 0 0-3.75Z" />
    <path fill="currentColor" fill-rule="evenodd"
      d="M.25 2.063C.25 1.2.95.5 1.813.5h14.374c.863 0 1.563.7 1.563 1.563v8.124c0 .863-.7 1.563-1.563 1.563H1.813c-.862 0-1.562-.7-1.562-1.563V2.063Zm5.625 4.062a3.125 3.125 0 1 1 6.25 0 3.125 3.125 0 0 1-6.25 0Zm8.75-.625a.625.625 0 0 0-.625.625v.006c0 .345.28.625.625.625h.006c.345 0 .625-.28.625-.625v-.006a.625.625 0 0 0-.625-.625h-.006ZM2.75 6.125c0-.345.28-.625.625-.625h.006c.345 0 .625.28.625.625v.006c0 .345-.28.625-.625.625h-.006a.625.625 0 0 1-.625-.625v-.006Z"
      clip-rule="evenodd" />
    <path fill="currentColor"
      d="M.875 13a.625.625 0 1 0 0 1.25c4.5 0 8.859.602 13 1.73.992.27 2-.466 2-1.517v-.838A.625.625 0 0 0 15.25 13H.875Z" />
  </symbol>

  <symbol id="gradient-icon__hero-3">
    <path fill="currentColor" fill-rule="evenodd"
      d="M0 .75A.75.75 0 0 1 .75 0h10.5a.75.75 0 0 1 0 1.5H11v13.75a.75.75 0 0 1-.75.75h-1.5a.75.75 0 0 1-.75-.75v-2.5a.75.75 0 0 0-.75-.75h-2.5a.75.75 0 0 0-.75.75v2.5a.75.75 0 0 1-.75.75H.75a.75.75 0 0 1 0-1.5H1v-13H.75A.75.75 0 0 1 0 .75ZM3 3.5a.5.5 0 0 1 .5-.5h1a.5.5 0 0 1 .5.5v1a.5.5 0 0 1-.5.5h-1a.5.5 0 0 1-.5-.5v-1ZM3.5 7a.5.5 0 0 0-.5.5v1a.5.5 0 0 0 .5.5h1a.5.5 0 0 0 .5-.5v-1a.5.5 0 0 0-.5-.5h-1ZM7 3.5a.5.5 0 0 1 .5-.5h1a.5.5 0 0 1 .5.5v1a.5.5 0 0 1-.5.5h-1a.5.5 0 0 1-.5-.5v-1ZM7.5 7a.5.5 0 0 0-.5.5v1a.5.5 0 0 0 .5.5h1a.5.5 0 0 0 .5-.5v-1a.5.5 0 0 0-.5-.5h-1ZM13.25 4a.75.75 0 0 0-.75.75V15a1 1 0 0 0 1 1h3.75a.75.75 0 0 0 0-1.5H17v-9h.25a.75.75 0 0 0 0-1.5h-4Zm.5 3.5a.5.5 0 0 1 .5-.5h1a.5.5 0 0 1 .5.5v1a.5.5 0 0 1-.5.5h-1a.5.5 0 0 1-.5-.5v-1Zm.5 3.5a.5.5 0 0 0-.5.5v1a.5.5 0 0 0 .5.5h1a.5.5 0 0 0 .5-.5v-1a.5.5 0 0 0-.5-.5h-1Z"
      clip-rule="evenodd" />
  </symbol>

  <symbol id="gradient-icon__hero-4">
    <path
      d="M9 0.875C9.34518 0.875 9.625 1.15482 9.625 1.5V3.375C9.625 3.72018 9.34518 4 9 4C8.65482 4 8.375 3.72018 8.375 3.375V1.5C8.375 1.15482 8.65482 0.875 9 0.875Z"
      fill="currentColor" />
    <path
      d="M5.25 9C5.25 6.92893 6.92893 5.25 9 5.25C11.0711 5.25 12.75 6.92893 12.75 9C12.75 11.0711 11.0711 12.75 9 12.75C6.92893 12.75 5.25 11.0711 5.25 9Z"
      fill="currentColor" />
    <path
      d="M14.7453 4.13862C14.9894 3.89454 14.9894 3.49881 14.7453 3.25473C14.5012 3.01065 14.1055 3.01065 13.8614 3.25473L12.5356 4.58056C12.2915 4.82463 12.2915 5.22036 12.5356 5.46444C12.7797 5.70852 13.1754 5.70852 13.4195 5.46444L14.7453 4.13862Z"
      fill="currentColor" />
    <path
      d="M17.125 9C17.125 9.34518 16.8452 9.625 16.5 9.625H14.625C14.2798 9.625 14 9.34518 14 9C14 8.65482 14.2798 8.375 14.625 8.375H16.5C16.8452 8.375 17.125 8.65482 17.125 9Z"
      fill="currentColor" />
    <path
      d="M13.8613 14.7452C14.1054 14.9893 14.5011 14.9893 14.7452 14.7452C14.9893 14.5011 14.9893 14.1054 14.7452 13.8613L13.4194 12.5355C13.1753 12.2914 12.7796 12.2914 12.5355 12.5355C12.2914 12.7796 12.2914 13.1753 12.5355 13.4194L13.8613 14.7452Z"
      fill="currentColor" />
    <path
      d="M9 14C9.34518 14 9.625 14.2798 9.625 14.625V16.5C9.625 16.8452 9.34518 17.125 9 17.125C8.65482 17.125 8.375 16.8452 8.375 16.5V14.625C8.375 14.2798 8.65482 14 9 14Z"
      fill="currentColor" />
    <path
      d="M5.46459 13.4194C5.70866 13.1753 5.70866 12.7796 5.46459 12.5355C5.22051 12.2914 4.82478 12.2914 4.5807 12.5355L3.25488 13.8613C3.0108 14.1054 3.0108 14.5011 3.25488 14.7452C3.49895 14.9893 3.89468 14.9893 4.13876 14.7452L5.46459 13.4194Z"
      fill="currentColor" />
    <path
      d="M4 9C4 9.34518 3.72018 9.625 3.375 9.625H1.5C1.15482 9.625 0.875 9.34518 0.875 9C0.875 8.65482 1.15482 8.375 1.5 8.375H3.375C3.72018 8.375 4 8.65482 4 9Z"
      fill="currentColor" />
    <path
      d="M4.58061 5.46443C4.82469 5.70851 5.22041 5.70851 5.46449 5.46443C5.70857 5.22036 5.70857 4.82463 5.46449 4.58055L4.13867 3.25472C3.89459 3.01065 3.49886 3.01065 3.25478 3.25472C3.0107 3.4988 3.0107 3.89453 3.25478 4.13861L4.58061 5.46443Z"
      fill="currentColor" />
  </symbol>

  <symbol id="gradient-icon__service-1">
    <path fill="currentColor"
      d="M13.313.875c-.863 0-1.563.7-1.563 1.563v13.124c0 .863.7 1.563 1.563 1.563h.624c.863 0 1.563-.7 1.563-1.563V2.438c0-.863-.7-1.563-1.563-1.563h-.624ZM6.125 6.188c0-.863.7-1.563 1.563-1.563h.625c.862 0 1.562.7 1.562 1.563v9.375c0 .862-.7 1.562-1.563 1.562h-.624c-.863 0-1.563-.7-1.563-1.563V6.188ZM.5 9.938c0-.863.7-1.563 1.563-1.563h.624c.863 0 1.563.7 1.563 1.563v5.624c0 .863-.7 1.563-1.563 1.563h-.624c-.863 0-1.563-.7-1.563-1.563V9.939Z" />
  </symbol>

  <symbol id="gradient-icon__service-2">
    <path fill="currentColor" fill-rule="evenodd"
      d="M.875 10.25A6.875 6.875 0 0 1 7.75 3.375c.345 0 .625.28.625.625v5.625H14c.345 0 .625.28.625.625a6.875 6.875 0 1 1-13.75 0Z"
      clip-rule="evenodd" />
    <path fill="currentColor" fill-rule="evenodd"
      d="M9.625 1.5c0-.345.28-.625.625-.625a6.875 6.875 0 0 1 6.875 6.875c0 .345-.28.625-.625.625h-6.25a.625.625 0 0 1-.625-.625V1.5Z"
      clip-rule="evenodd" />
  </symbol>

  <symbol id="gradient-icon__service-3">
    <path fill="currentColor"
      d="M15.5 4.313c0 2.243-3.358 4.062-7.5 4.062-4.142 0-7.5-1.819-7.5-4.063C.5 2.07 3.858.25 8 .25c4.142 0 7.5 1.819 7.5 4.063Z" />
    <path fill="currentColor"
      d="M8 9.625c2.238 0 4.325-.489 5.899-1.34a6.904 6.904 0 0 0 1.58-1.154c.014.1.021.203.021.306 0 2.244-3.358 4.063-7.5 4.063C3.858 11.5.5 9.681.5 7.437c0-.103.007-.205.021-.306a6.901 6.901 0 0 0 1.58 1.153C3.675 9.136 5.762 9.625 8 9.625Z" />
    <path fill="currentColor"
      d="M8 12.75c2.238 0 4.325-.489 5.899-1.34a6.903 6.903 0 0 0 1.58-1.154c.014.1.021.203.021.306 0 2.244-3.358 4.063-7.5 4.063-4.142 0-7.5-1.819-7.5-4.063 0-.103.007-.205.021-.306a6.9 6.9 0 0 0 1.58 1.153C3.675 12.261 5.762 12.75 8 12.75Z" />
    <path fill="currentColor"
      d="M8 15.875c2.238 0 4.325-.489 5.899-1.34a6.903 6.903 0 0 0 1.58-1.154c.014.1.021.203.021.306 0 2.244-3.358 4.063-7.5 4.063-4.142 0-7.5-1.819-7.5-4.063 0-.103.007-.205.021-.306a6.9 6.9 0 0 0 1.58 1.153c1.574.852 3.661 1.341 5.899 1.341Z" />
  </symbol>

  <symbol id="gradient-icon__service-4">
    <path fill="currentColor"
      d="M13.068 2.621A19.26 19.26 0 0 1 5.875 4H5.25a4.375 4.375 0 0 0-.733 8.689c.278 1.14.665 2.24 1.148 3.284.386.836 1.395 1.1 2.152.663l.547-.316c.733-.423.971-1.327.643-2.057a14.28 14.28 0 0 1-.522-1.339 19.24 19.24 0 0 1 4.583 1.205c.604-1.808.932-3.743.932-5.754 0-2.011-.328-3.946-.932-5.754Z" />
    <path fill="currentColor"
      d="M14.217 2.117a19.352 19.352 0 0 1 1.033 6.258 19.352 19.352 0 0 1-1.175 6.66.625.625 0 1 0 1.174.43 20.538 20.538 0 0 0 1.18-5.358c.43-.45.696-1.06.696-1.732 0-.672-.266-1.283-.697-1.731a20.537 20.537 0 0 0-1.18-5.359.625.625 0 1 0-1.173.43c.049.133.096.267.142.402Z" />
  </symbol>

  <symbol id="gradient-icon__service-5">
    <path fill="currentColor"
      d="M3 .5A2.5 2.5 0 0 0 .5 3v1.875a2.5 2.5 0 0 0 2.5 2.5h1.875a2.5 2.5 0 0 0 2.5-2.5V3a2.5 2.5 0 0 0-2.5-2.5H3ZM11.125.5a2.5 2.5 0 0 0-2.5 2.5v1.875a2.5 2.5 0 0 0 2.5 2.5H13a2.5 2.5 0 0 0 2.5-2.5V3A2.5 2.5 0 0 0 13 .5h-1.875ZM3 8.625a2.5 2.5 0 0 0-2.5 2.5V13A2.5 2.5 0 0 0 3 15.5h1.875a2.5 2.5 0 0 0 2.5-2.5v-1.875a2.5 2.5 0 0 0-2.5-2.5H3ZM12.688 9.25a.625.625 0 1 0-1.25 0v2.188H9.25a.625.625 0 1 0 0 1.25h2.188v2.187a.625.625 0 1 0 1.25 0v-2.188h2.187a.625.625 0 1 0 0-1.25h-2.188V9.25Z" />
  </symbol>

  <symbol id="gradient-icon__service-6">
    <path fill="currentColor" fill-rule="evenodd"
      d="M.875 2.438c0-.863.7-1.563 1.563-1.563h4.374c.863 0 1.563.7 1.563 1.563v10.937a3.75 3.75 0 1 1-7.5 0V2.437Zm3.75 11.874a.937.937 0 1 0 0-1.874.937.937 0 0 0 0 1.874Z"
      clip-rule="evenodd" />
    <path fill="currentColor"
      d="M7.933 17.125h7.63c.862 0 1.562-.7 1.562-1.563v-4.374c0-.863-.7-1.563-1.562-1.563h-.117L8.161 16.91c-.075.075-.15.146-.228.215ZM9.615 13.688l5.395-5.395c.61-.61.61-1.6 0-2.21l-3.093-3.094c-.61-.61-1.6-.61-2.21 0l-.082.083v10.303c0 .105-.003.21-.01.313Z" />
  </symbol>

  <symbol id="gradient-icon__service-7">
    <path fill="currentColor" fill-rule="evenodd"
      d="M6.5 2.75c.279 0 .524.185.601.453l.678 2.372a3.125 3.125 0 0 0 2.146 2.146l2.372.678a.625.625 0 0 1 0 1.202l-2.372.678a3.125 3.125 0 0 0-2.146 2.146L7.1 14.797a.625.625 0 0 1-1.202 0l-.678-2.372a3.125 3.125 0 0 0-2.146-2.146L.703 9.6a.625.625 0 0 1 0-1.202l2.372-.678a3.125 3.125 0 0 0 2.146-2.146L5.9 3.203A.625.625 0 0 1 6.5 2.75ZM14 .25c.287 0 .537.195.606.473l.216.863a2.187 2.187 0 0 0 1.592 1.592l.863.216a.625.625 0 0 1 0 1.212l-.863.216a2.187 2.187 0 0 0-1.592 1.592l-.216.863a.625.625 0 0 1-1.212 0l-.216-.863a2.187 2.187 0 0 0-1.592-1.592l-.863-.216a.625.625 0 0 1 0-1.212l.863-.216a2.187 2.187 0 0 0 1.592-1.592l.216-.863A.625.625 0 0 1 14 .25ZM12.75 11.5c.269 0 .508.172.593.427l.329.986c.124.373.417.666.79.79l.986.33a.625.625 0 0 1 0 1.185l-.986.329a1.25 1.25 0 0 0-.79.79l-.33.986a.625.625 0 0 1-1.185 0l-.329-.986a1.25 1.25 0 0 0-.79-.79l-.986-.33a.625.625 0 0 1 0-1.185l.986-.329a1.25 1.25 0 0 0 .79-.79l.33-.986a.625.625 0 0 1 .592-.427Z"
      clip-rule="evenodd" />
  </symbol>

  <symbol id="gradient-icon__service-8">
    <path fill="currentColor" fill-rule="evenodd"
      d="M8.803.905A.625.625 0 0 0 7.91.79 8.118 8.118 0 0 0 4.961 5.94a6.29 6.29 0 0 1-1.421-1.43.625.625 0 0 0-.96-.068 7.5 7.5 0 1 0 8.487-1.662A6.216 6.216 0 0 1 8.803.904Zm2.322 9.97a3.125 3.125 0 1 1-6.094-.977 4.979 4.979 0 0 0 1.778.834 4.991 4.991 0 0 1 1.603-2.955 3.126 3.126 0 0 1 2.713 3.098Z"
      clip-rule="evenodd" />
  </symbol>

  <symbol id="gradient-icon__service-9">
    <path fill="currentColor"
      d="M7 .625A6.875 6.875 0 0 0 3.554 13.45c.572.332.93.84.945 1.352a.625.625 0 0 0 .481.589c.293.069.592.123.895.162.27.035.5-.181.5-.453v-3.884a5.61 5.61 0 0 1-.78-.143.625.625 0 0 1 .31-1.21 4.384 4.384 0 0 0 2.19 0 .625.625 0 1 1 .31 1.21 5.609 5.609 0 0 1-.78.143V15.1c0 .272.231.488.5.453.304-.039.602-.093.895-.162a.625.625 0 0 0 .48-.589c.017-.512.374-1.02.946-1.352A6.875 6.875 0 0 0 7 .625Z" />
    <path fill="currentColor" fill-rule="evenodd"
      d="M4.511 16.583a.625.625 0 0 1 .73-.497 9.434 9.434 0 0 0 3.518 0 .625.625 0 1 1 .232 1.228 10.683 10.683 0 0 1-3.982 0 .625.625 0 0 1-.498-.731ZM5.128 18.62a.625.625 0 0 1 .687-.557 11.391 11.391 0 0 0 2.37 0 .625.625 0 0 1 .13 1.244 12.645 12.645 0 0 1-2.63 0 .625.625 0 0 1-.557-.687Z"
      clip-rule="evenodd" />
  </symbol>

  <symbol id="gradient-icon__contact-1">
    <path fill="currentColor"
      d="M.25 4.224v7.151a2.5 2.5 0 0 0 2.5 2.5h12.5a2.5 2.5 0 0 0 2.5-2.5v-7.15l-7.44 4.578a2.5 2.5 0 0 1-2.62 0L.25 4.224Z" />
    <path fill="currentColor"
      d="M17.75 2.757v-.132a2.5 2.5 0 0 0-2.5-2.5H2.75a2.5 2.5 0 0 0-2.5 2.5v.132l8.095 4.981a1.25 1.25 0 0 0 1.31 0l8.095-4.981Z" />
  </symbol>

  <symbol id="gradient-icon__contact-2">
    <path fill="currentColor" fill-rule="evenodd"
      d="M.25 2.75a2.5 2.5 0 0 1 2.5-2.5h1.143c.717 0 1.342.488 1.516 1.184L6.33 5.12a1.563 1.563 0 0 1-.578 1.628l-1.078.809c-.112.084-.136.207-.105.293a9.404 9.404 0 0 0 5.581 5.58c.086.032.209.008.293-.104l.809-1.078a1.563 1.563 0 0 1 1.628-.578l3.687.921a1.563 1.563 0 0 1 1.183 1.516v1.143a2.5 2.5 0 0 1-2.5 2.5h-1.875C6.126 17.75.25 11.874.25 4.625V2.75Z"
      clip-rule="evenodd" />
  </symbol>

  <symbol id="gradient-icon__contact-3">
    <path fill="currentColor" fill-rule="evenodd"
      d="m6.616 17.126.06.034.023.013a.634.634 0 0 0 .602 0l.024-.013a5.398 5.398 0 0 0 .271-.162c.181-.11.436-.275.741-.49.609-.43 1.421-1.068 2.235-1.902 1.62-1.659 3.303-4.15 3.303-7.356a6.875 6.875 0 1 0-13.75 0c0 3.205 1.683 5.697 3.303 7.356A16.32 16.32 0 0 0 6.404 17l.212.127ZM7 9.75a2.5 2.5 0 1 0 0-5 2.5 2.5 0 0 0 0 5Z"
      clip-rule="evenodd" />
  </symbol>

  <symbol id="gradient-icon__contact-4">
    <path fill="currentColor"
      d="M9 17.235A8.236 8.236 0 0 1 .767 9H9v8.235ZM.766.765A8.236 8.236 0 0 1 9 9H.766V.765ZM9 17.235A8.236 8.236 0 0 0 17.235 9H9v8.235ZM17.235 9A8.236 8.236 0 0 0 9 .765V9h8.235Z" />
  </symbol>

  <symbol id="area">
    <g clip-path="url(#a)">
      <g clip-path="url(#b)">
        <path fill="currentColor"
          d="m.837 3.766-.669.785L-1 3.374 1.776.596l2.775 2.78-1.147 1.146-.814-.907v3.79L7.84 2.15c-.464 0-.988-.033-1.506.01-.448.036-.762-.112-1.054-.443-.355-.4-.76-.76-1.197-1.19.166-.012.256-.024.347-.024C8.82.502 13.214.5 17.607.503c1.402 0 2.4.977 2.403 2.37.007 4.416.002 8.831.002 13.247 0 .061-.006.123-.091.243-.398-.416-.778-.852-1.201-1.241-.275-.253-.385-.517-.363-.888.032-.52.008-1.043.008-1.56l-5.253 5.259h3.797l-.935-.763 1.228-1.182 2.738 2.768-2.765 2.745-1.116-1.137.73-.645a5.747 5.747 0 0 0-.049-.116h-.362c-4.327 0-8.654.002-12.98 0-1.185 0-2.039-.575-2.365-1.62a3.104 3.104 0 0 1-.116-.907C.91 12.771.912 8.466.912 4.16v-.348l-.077-.045h.002Zm1.726 12.917L17.093 2.15c-.69 0-1.4-.006-2.109.007-.09.002-.196.085-.269.157A13692.55 13692.55 0 0 0 2.726 14.306c-.072.073-.155.178-.157.27-.013.708-.007 1.417-.007 2.107ZM18.365 3.458 3.867 17.953c.659 0 1.358.006 2.057-.008.09-.002.195-.088.267-.161C10.196 13.783 14.2 9.779 18.2 5.773c.072-.073.156-.178.157-.269.013-.698.007-1.397.007-2.046h.001Zm0 4.63-9.874 9.865c.668 0 1.366.006 2.065-.008.09-.002.193-.092.266-.165 2.463-2.458 4.922-4.918 7.38-7.381.071-.073.154-.179.156-.27.013-.7.007-1.398.007-2.042ZM2.563 12.023l9.876-9.873c-.66 0-1.336-.006-2.013.006-.092.002-.2.08-.271.15-2.48 2.474-4.955 4.95-7.428 7.43-.072.072-.155.176-.157.268-.013.678-.007 1.356-.007 2.02Z" />
      </g>
    </g>
    <defs>
      <clipPath id="a">
        <path fill="currentColor" d="M0 .5h20v20H0z" />
      </clipPath>
      <clipPath id="b">
        <path fill="currentColor" d="M-1 .5h21.015v21H-1z" />
      </clipPath>
    </defs>
  </symbol>

  <symbol id="bolt" width="14" height="17" viewBox="0 0 18 18">
    <path fill="currentColor" fill-rule="evenodd"
      d="M8.961.696c.226.126.337.39.27.64L7.735 6.812h5.452a.563.563 0 0 1 .41.947l-7.874 8.437a.562.562 0 0 1-.954-.532l1.494-5.476H.813A.563.563 0 0 1 .4 9.24L8.276.804a.563.563 0 0 1 .685-.108Z"
      clip-rule="evenodd" />
  </symbol>

</svg>