<svg xmlns="http://www.w3.org/2000/svg">
  <symbol>
    <path id='logoIcon'
      d="M14 28C6.269 28 0 21.731 0 14h14v14ZM0 0c7.731 0 14 6.269 14 14H0V0ZM14 28c7.731 0 14-6.269 14-14H14v14ZM28 14c0-7.731-6.269-14-14-14v14h14Z" />
  </symbol>

  <symbol>
    <path id='burgerOpen' fill-rule="evenodd" clip-rule="evenodd"
      d="M3.5 7.875C3.5 7.39175 3.89175 7 4.375 7H23.625C24.1082 7 24.5 7.39175 24.5 7.875C24.5 8.35825 24.1082 8.75 23.625 8.75H4.375C3.89175 8.75 3.5 8.35825 3.5 7.875ZM3.5 14C3.5 13.5168 3.89175 13.125 4.375 13.125H23.625C24.1082 13.125 24.5 13.5168 24.5 14C24.5 14.4832 24.1082 14.875 23.625 14.875H4.375C3.89175 14.875 3.5 14.4832 3.5 14ZM13.125 20.125C13.125 19.6418 13.5168 19.25 14 19.25H23.625C24.1082 19.25 24.5 19.6418 24.5 20.125C24.5 20.6082 24.1082 21 23.625 21H14C13.5168 21 13.125 20.6082 13.125 20.125Z" />
  </symbol>

  <symbol>
    <path id='burgerClose' fill-rule="evenodd" clip-rule="evenodd"
      d="M5.46967 5.46967C5.76256 5.17678 6.23744 5.17678 6.53033 5.46967L12 10.9393L17.4697 5.46967C17.7626 5.17678 18.2374 5.17678 18.5303 5.46967C18.8232 5.76256 18.8232 6.23744 18.5303 6.53033L13.0607 12L18.5303 17.4697C18.8232 17.7626 18.8232 18.2374 18.5303 18.5303C18.2374 18.8232 17.7626 18.8232 17.4697 18.5303L12 13.0607L6.53033 18.5303C6.23744 18.8232 5.76256 18.8232 5.46967 18.5303C5.17678 18.2374 5.17678 17.7626 5.46967 17.4697L10.9393 12L5.46967 6.53033C5.17678 6.23744 5.17678 5.76256 5.46967 5.46967Z" />
  </symbol>


</svg>