<svg xmlns="http://www.w3.org/2000/svg">
  <symbol>
    <path id='csv'
      d="M44.026 18.96H42.75v-6.142a.842.842 0 0 0-.011-.116 1.015 1.015 0 0 0-.248-.672L32.26.357l-.008-.008a1.063 1.063 0 0 0-.206-.173l-.068-.04a1.032 1.032 0 0 0-.205-.087L31.718.03a1.015 1.015 0 0 0-.24-.03H6.33a2.082 2.082 0 0 0-2.081 2.078v16.88H2.974A2.972 2.972 0 0 0 0 21.928v15.449c0 1.639 1.333 2.97 2.974 2.97H4.25v10.575C4.249 52.067 5.18 53 6.33 53h34.34a2.083 2.083 0 0 0 2.081-2.078V40.347h1.275A2.973 2.973 0 0 0 47 37.377V21.928a2.971 2.971 0 0 0-2.974-2.968ZM6.33 2.078h24.107v10.635a1.04 1.04 0 0 0 1.042 1.038h9.193v5.207H6.33V2.078Zm15.57 28.48c-2.527-.902-4.194-2.299-4.194-4.505 0-2.589 2.188-4.547 5.75-4.547 1.738 0 2.977.338 3.88.764l-.768 2.747a7.14 7.14 0 0 0-3.156-.72c-1.49 0-2.211.697-2.211 1.463 0 .97.833 1.395 2.818 2.139 2.684.991 3.923 2.386 3.923 4.527 0 2.546-1.938 4.707-6.11 4.707-1.737 0-3.45-.474-4.307-.947l.7-2.814a8.682 8.682 0 0 0 3.809.946c1.579 0 2.414-.655 2.414-1.645 0-.946-.72-1.485-2.548-2.116ZM3.991 29.52c0-5.158 3.698-8.017 8.297-8.017 1.782 0 3.134.358 3.743.653l-.722 2.724a7.248 7.248 0 0 0-2.886-.563c-2.705 0-4.824 1.643-4.824 5.02 0 3.018 1.803 4.933 4.847 4.933 1.06 0 2.188-.2 2.885-.495l.499 2.701c-.61.291-2.053.654-3.879.654-5.254.002-7.96-3.286-7.96-7.61ZM40.67 50.362H6.33V40.349h34.34v10.013Zm-2.779-13.455h-4.013l-4.87-15.178h3.766l1.848 6.42c.517 1.823.99 3.535 1.352 5.426h.068a67.248 67.248 0 0 1 1.374-5.359l1.94-6.485h3.65l-5.115 15.176Z" />
  </symbol>
  <symbol>
    <path id="cloud"
      d="M48.75 55.18h-5.79V36.25a.627.627 0 0 0-.624-.625h-4.688a.627.627 0 0 0-.625.625v18.93H31.25a.623.623 0 0 0-.492 1.008l8.75 11.07a.627.627 0 0 0 .984 0l8.75-11.07a.623.623 0 0 0-.492-1.008Z" />
    <path id="arrow"
      d="M63.39 28.648C59.813 19.211 50.696 12.5 40.017 12.5c-10.68 0-19.797 6.703-23.375 16.14C9.945 30.399 5 36.5 5 43.75c0 8.633 6.992 15.625 15.617 15.625h3.133a.627.627 0 0 0 .625-.625v-4.688a.627.627 0 0 0-.625-.624h-3.133a9.63 9.63 0 0 1-6.953-2.946 9.683 9.683 0 0 1-2.726-7.078c.07-2.062.773-4 2.046-5.633a9.79 9.79 0 0 1 5.164-3.414l2.961-.773 1.086-2.86a18.788 18.788 0 0 1 2.79-4.953 19.19 19.19 0 0 1 4.093-3.898 18.916 18.916 0 0 1 10.938-3.453c3.945 0 7.726 1.195 10.937 3.453a19.201 19.201 0 0 1 4.094 3.898 18.909 18.909 0 0 1 2.789 4.953l1.078 2.852 2.953.781a9.732 9.732 0 0 1 7.196 9.383 9.633 9.633 0 0 1-2.836 6.852 9.617 9.617 0 0 1-6.844 2.836H56.25a.627.627 0 0 0-.625.624v4.688c0 .344.281.625.625.625h3.133C68.008 59.375 75 52.383 75 43.75c0-7.242-4.93-13.336-11.61-15.102Z" />
  </symbol>
  <symbol>
    <path id="pdf1"
      d="M23.723 35.67c0-1.454-1.01-2.323-2.791-2.323-.727 0-1.219.07-1.477.14v4.67c.306.068.681.093 1.196.093 1.9 0 3.072-.962 3.072-2.58Zm11.03-2.277c-.797 0-1.314.07-1.62.142V43.88c.306.07.798.07 1.243.07 3.237.024 5.35-1.76 5.35-5.535.024-3.285-1.9-5.022-4.973-5.022Z" />
    <path id="pdf2"
      d="M55.886 27.316H54.59v-6.258a.858.858 0 0 0-.011-.119 1.043 1.043 0 0 0-.251-.686L43.915 8.362l-.008-.008a1.083 1.083 0 0 0-.488-.304l-.057-.02a.998.998 0 0 0-.243-.03h-25.59a2.12 2.12 0 0 0-2.118 2.118v17.197h-1.297a3.026 3.026 0 0 0-3.026 3.027v15.74a3.028 3.028 0 0 0 3.026 3.026h1.297v10.776a2.12 2.12 0 0 0 2.118 2.118H52.47a2.12 2.12 0 0 0 2.118-2.118V49.108h1.297a3.027 3.027 0 0 0 3.026-3.026v-15.74a3.027 3.027 0 0 0-3.026-3.026ZM17.53 10.117h24.53v10.835c0 .585.474 1.058 1.06 1.058h9.354v5.305H17.53V10.117Zm25.997 28.178c0 3.026-1.102 5.115-2.63 6.405-1.665 1.383-4.197 2.041-7.294 2.041-1.854 0-3.166-.119-4.06-.233V30.977c1.314-.21 3.027-.327 4.834-.327 3.002 0 4.95.54 6.474 1.689 1.643 1.219 2.676 3.166 2.676 5.957ZM15.91 46.58V30.977c1.102-.188 2.652-.327 4.832-.327 2.206 0 3.779.423 4.833 1.266 1.008.798 1.687 2.112 1.687 3.66 0 1.55-.515 2.862-1.454 3.753-1.22 1.15-3.026 1.666-5.138 1.666a8.97 8.97 0 0 1-1.219-.07v5.654h-3.54Zm36.561 12.73H17.53V49.108h34.94V59.31ZM55.54 33.7h-6.078v3.613h5.678v2.91h-5.678v6.356h-3.587V30.767h9.665v2.932Z" />
  </symbol>
  <symbol>
    <path id="shield1" fill-rule="evenodd"
      d="M24.973.487 46.874 7.95c.535.186.974.799.96 1.366v31.092c0 .574-.367 1.322-.811 1.67L24.806 59.39a1.32 1.32 0 0 1-.812.264c-.297 0-.587-.09-.813-.264L.964 42.078C.52 41.724.152 40.977.152 40.41V9.317c0-.567.439-1.186.974-1.366l21.9-7.464c.265-.09.62-.135.974-.135.355 0 .709.045.973.135ZM24 54.137l19.207-14.965v-27.56L24 5.062 4.793 11.611v27.56L24 54.139Z"
      clip-rule="evenodd" />
    <path id="shield2" fill-rule="evenodd"
      d="m16.968 31.083-4.995 4.995a.518.518 0 0 0 0 .728l2.191 2.192c.2.2.529.2.729 0l4.995-4.995a9.287 9.287 0 0 0 11.511-1.296 9.286 9.286 0 0 0 0-13.136 9.286 9.286 0 0 0-13.135 0 9.288 9.288 0 0 0-1.296 11.512ZM28.48 22.49a5.16 5.16 0 0 0-7.296 7.296 5.154 5.154 0 0 0 7.296 0 5.154 5.154 0 0 0 0-7.296Z"
      clip-rule="evenodd" />
  </symbol>
</svg>